<?xml version="1.0" encoding="UTF-8"?>
<svg id="Layer_2" data-name="Layer 2" xmlns="http://www.w3.org/2000/svg" xmlns:xlink="http://www.w3.org/1999/xlink" viewBox="0 0 426.82 213.41">
  <defs>
    <style>
      .cls-1 {
        clip-path: url(#clippath);
      }

      .cls-2 {
        fill: none;
      }

      .cls-2, .cls-3, .cls-4 {
        stroke-width: 0px;
      }

      .cls-3 {
        fill: #1a6fa0;
      }

      .cls-4 {
        fill: #fff;
      }
    </style>
    <clipPath id="clippath">
      <rect class="cls-2" width="426.82" height="213.41"/>
    </clipPath>
  </defs>
  <g id="Layer_1-2" data-name="Layer 1">
    <g>
      <rect class="cls-3" width="426.82" height="213.41"/>
      <g>
        <path class="cls-4" d="m26.86,135.98c1.12,0,2.03.16,2.73.49.7.33,1.34.71,1.93,1.14.2.17.37.25.5.25.32,0,.53-.51.62-1.53h.58c-.03.63-.06,1.41-.08,2.33-.02.92-.03,2.13-.03,3.63h-.58c-.12-.9-.28-1.71-.5-2.43-.22-.72-.61-1.33-1.18-1.83-.43-.47-.98-.83-1.64-1.09s-1.32-.39-1.99-.39c-.88,0-1.66.23-2.31.69s-1.21,1.08-1.65,1.88c-.44.79-.77,1.71-.99,2.75s-.33,2.16-.33,3.34c0,3,.44,5.2,1.31,6.59.88,1.39,2.17,2.09,3.87,2.09.47,0,.87-.06,1.21-.19s.62-.25.84-.39c.27-.18.44-.38.53-.58.08-.2.12-.45.12-.75v-2.45c0-.73-.07-1.28-.2-1.64-.13-.36-.38-.6-.74-.74-.36-.13-.89-.21-1.59-.22v-.5c.33.02.73.03,1.19.04s.94.02,1.45.02c.51,0,.97.01,1.39.01.65,0,1.24,0,1.78-.02.53-.02.98-.03,1.33-.05v.5c-.33.02-.59.08-.76.17-.18.1-.29.3-.34.6-.05.3-.08.76-.08,1.38v4.95h-.5c-.02-.28-.08-.59-.2-.93-.12-.33-.29-.5-.53-.5-.12,0-.25.03-.4.09-.15.06-.41.19-.78.39-.58.38-1.21.7-1.86.94-.66.24-1.38.36-2.17.36-1.87,0-3.45-.35-4.74-1.06s-2.27-1.73-2.94-3.08-1-2.95-1-4.82.38-3.59,1.13-5,1.78-2.51,3.09-3.29c1.31-.78,2.81-1.16,4.49-1.16Z"/>
        <path class="cls-4" d="m42.05,140.76c1.47,0,2.62.44,3.45,1.33.83.88,1.25,2.29,1.25,4.23h-8.43l-.03-.47h5.55c.03-.82-.02-1.57-.15-2.26s-.35-1.25-.64-1.66-.67-.62-1.14-.62c-.63,0-1.18.37-1.65,1.11s-.76,1.96-.88,3.64l.1.15c-.03.22-.05.45-.06.7,0,.25-.01.5-.01.75,0,1.15.17,2.1.5,2.85.33.75.77,1.3,1.3,1.65.53.35,1.08.53,1.65.53.38,0,.78-.06,1.18-.17.4-.12.79-.33,1.18-.65.38-.32.73-.77,1.05-1.35l.48.2c-.18.58-.49,1.16-.91,1.74-.43.58-.97,1.05-1.64,1.41-.67.37-1.45.55-2.35.55-1.13,0-2.13-.25-3-.75s-1.54-1.25-2.03-2.24c-.48-.99-.73-2.21-.73-3.64,0-1.52.25-2.79.76-3.83.51-1.03,1.21-1.82,2.11-2.36.9-.54,1.93-.81,3.08-.81Z"/>
        <path class="cls-4" d="m56.59,140.76c.52,0,.95.11,1.29.33s.6.49.76.83c.17.33.25.68.25,1.05,0,.55-.16,1.01-.49,1.38-.33.37-.75.55-1.29.55-.5,0-.91-.13-1.23-.4-.32-.27-.48-.63-.48-1.1,0-.42.1-.77.31-1.05.21-.28.45-.51.71-.68-.18-.1-.39-.13-.62-.1-.4.03-.77.18-1.1.43-.33.25-.62.56-.85.93s-.41.76-.54,1.18-.19.82-.19,1.2v6.18c0,.82.21,1.36.63,1.64s1.03.41,1.83.41v.53c-.38-.02-.94-.04-1.66-.06-.72-.03-1.48-.04-2.26-.04-.65,0-1.3.01-1.94.04-.64.03-1.12.05-1.44.06v-.53c.62,0,1.05-.12,1.31-.38.26-.25.39-.73.39-1.43v-7.88c0-.75-.12-1.3-.36-1.66-.24-.36-.69-.54-1.34-.54v-.53c.53.05,1.05.08,1.55.08.62,0,1.2-.03,1.76-.09.56-.06,1.07-.15,1.54-.26v2.6c.2-.47.46-.9.79-1.3.33-.4.72-.73,1.18-.99.46-.26.95-.39,1.49-.39Z"/>
        <path class="cls-4" d="m68.57,140.76c.65,0,1.2.09,1.64.27.44.18.79.42,1.04.7.3.32.51.74.62,1.26.12.53.18,1.19.18,1.99v6.73c0,.7.12,1.18.36,1.43.24.25.65.38,1.24.38v.53c-.3-.02-.75-.04-1.35-.06s-1.18-.04-1.75-.04c-.6,0-1.18.01-1.74.04-.56.03-.98.05-1.26.06v-.53c.48,0,.83-.12,1.04-.38.21-.25.31-.73.31-1.43v-7.58c0-.45-.03-.85-.1-1.21s-.21-.64-.43-.85c-.22-.21-.55-.31-1-.31-.52,0-.98.15-1.4.45-.42.3-.75.71-.99,1.24-.24.53-.36,1.11-.36,1.76v6.5c0,.7.1,1.18.3,1.43.2.25.55.38,1.05.38v.53c-.28-.02-.7-.04-1.24-.06s-1.1-.04-1.66-.04c-.62,0-1.24.01-1.88.04s-1.11.05-1.43.06v-.53c.62,0,1.05-.12,1.31-.38.26-.25.39-.73.39-1.43v-7.88c0-.75-.12-1.3-.36-1.66-.24-.36-.69-.54-1.34-.54v-.53c.53.05,1.05.08,1.55.08.62,0,1.2-.03,1.76-.09.56-.06,1.07-.15,1.54-.26v2.5c.42-.92.98-1.58,1.68-1.98.7-.4,1.46-.6,2.28-.6Zm7.53,0c.65,0,1.2.09,1.64.27.44.18.79.42,1.04.7.3.32.51.74.62,1.26.12.53.17,1.19.17,1.99v6.73c0,.7.13,1.18.39,1.43.26.25.7.38,1.31.38v.53c-.3-.02-.76-.04-1.39-.06-.63-.03-1.23-.04-1.81-.04s-1.18.01-1.74.04c-.56.03-.98.05-1.26.06v-.53c.48,0,.83-.12,1.04-.38.21-.25.31-.73.31-1.43v-7.58c0-.45-.04-.85-.11-1.21s-.23-.64-.46-.85c-.23-.21-.58-.31-1.05-.31-.52,0-.98.16-1.4.48-.42.32-.75.74-.99,1.26s-.37,1.11-.39,1.76l-.12-1.8c.45-1.03,1.05-1.74,1.8-2.13.75-.38,1.55-.58,2.4-.58Z"/>
        <path class="cls-4" d="m85.73,154.22c-.72,0-1.33-.14-1.83-.41-.5-.28-.88-.65-1.13-1.13-.25-.48-.38-1-.38-1.59,0-.72.17-1.3.5-1.76s.76-.83,1.29-1.1,1.08-.51,1.66-.7,1.13-.38,1.65-.55c.52-.17.94-.38,1.28-.61.33-.23.5-.54.5-.93v-1.83c0-.53-.08-.97-.24-1.31-.16-.34-.39-.6-.7-.78-.31-.17-.7-.26-1.16-.26-.35,0-.72.05-1.1.15-.38.1-.7.29-.95.58.43.12.77.33,1.01.65.24.32.36.7.36,1.15,0,.52-.17.92-.51,1.21-.34.29-.77.44-1.29.44-.55,0-.97-.18-1.25-.53-.28-.35-.43-.76-.43-1.23s.12-.85.35-1.16.56-.59.98-.84c.42-.28.95-.51,1.6-.68s1.36-.25,2.13-.25,1.38.08,1.95.24c.57.16,1.05.44,1.45.84.4.38.66.86.78,1.43.12.57.18,1.26.18,2.08v6.86c0,.42.05.71.15.89.1.17.26.26.48.26.17,0,.33-.04.48-.12.15-.08.32-.2.5-.35l.28.42c-.37.28-.75.51-1.15.68-.4.17-.88.25-1.45.25s-1.05-.08-1.39-.25c-.34-.17-.59-.41-.75-.73-.16-.32-.25-.69-.26-1.13-.4.67-.89,1.18-1.48,1.55s-1.28.55-2.1.55Zm1.5-1.4c.4,0,.77-.11,1.11-.33.34-.22.65-.54.94-.98v-5.05c-.17.25-.4.48-.71.68s-.64.4-.99.6c-.35.2-.68.43-.99.69-.31.26-.57.58-.78.95-.21.38-.31.85-.31,1.44,0,.65.16,1.15.48,1.49.32.34.73.51,1.25.51Z"/>
        <path class="cls-4" d="m104.02,140.76c.7,0,1.26.09,1.69.27.43.18.77.42,1.04.7.3.32.51.73.64,1.23.12.5.19,1.18.19,2.03v6.73c0,.7.13,1.18.39,1.43.26.25.7.38,1.31.38v.53c-.3-.02-.76-.04-1.39-.06-.62-.03-1.23-.04-1.81-.04-.62,0-1.22.01-1.8.04s-1.02.05-1.3.06v-.53c.53,0,.91-.12,1.13-.38.22-.25.33-.73.33-1.43v-7.58c0-.45-.04-.85-.12-1.21-.08-.36-.25-.64-.5-.85-.25-.21-.61-.31-1.08-.31-.55,0-1.04.15-1.46.45-.43.3-.76.71-1,1.24-.24.53-.36,1.11-.36,1.76v6.5c0,.7.11,1.18.33,1.43.22.25.59.38,1.12.38v.53c-.28-.02-.71-.04-1.28-.06-.57-.03-1.14-.04-1.73-.04-.62,0-1.24.01-1.88.04s-1.11.05-1.43.06v-.53c.62,0,1.05-.12,1.31-.38.26-.25.39-.73.39-1.43v-7.88c0-.75-.12-1.3-.36-1.66-.24-.36-.69-.54-1.34-.54v-.53c.53.05,1.05.08,1.55.08.62,0,1.2-.03,1.76-.09.56-.06,1.07-.15,1.54-.26v2.5c.42-.95.99-1.62,1.73-2s1.53-.58,2.4-.58Z"/>
        <path class="cls-4" d="m17.88,179.61v-.5c.55-.03.96-.1,1.24-.2.27-.1.46-.3.55-.6.09-.3.14-.75.14-1.35v-12.41c0-.62-.05-1.07-.14-1.36-.09-.29-.28-.49-.55-.6-.28-.11-.69-.17-1.24-.19v-.5c.4.02.93.03,1.59.05s1.36.03,2.11.03c.67,0,1.33,0,1.98-.03s1.18-.03,1.6-.05v.5c-.53.02-.94.08-1.21.19-.28.11-.46.31-.56.6-.1.29-.15.75-.15,1.36v12.41c0,.6.05,1.05.14,1.35.09.3.28.5.56.6.28.1.69.17,1.23.2v.5c-.42-.03-.95-.05-1.6-.06-.65,0-1.31-.01-1.98-.01-.75,0-1.46,0-2.11.01-.66,0-1.19.03-1.59.06Zm3.98-8.66v-.5h9.88v.5h-9.88Zm6.58,8.66v-.5c.55-.03.96-.1,1.24-.2.28-.1.46-.3.55-.6.09-.3.14-.75.14-1.35v-12.41c0-.62-.05-1.07-.14-1.36-.09-.29-.28-.49-.55-.6-.28-.11-.69-.17-1.24-.19v-.5c.45.02,1.01.03,1.68.05.67.02,1.33.03,2,.03.73,0,1.42,0,2.06-.03.64-.02,1.15-.03,1.54-.05v.5c-.53.02-.94.08-1.21.19-.28.11-.46.31-.56.6-.1.29-.15.75-.15,1.36v12.41c0,.6.05,1.05.14,1.35.09.3.28.5.56.6.28.1.69.17,1.23.2v.5c-.38-.03-.9-.05-1.54-.06-.64,0-1.33-.01-2.06-.01-.67,0-1.33,0-2,.01-.67,0-1.23.03-1.68.06Z"/>
        <path class="cls-4" d="m49.08,166.4v10.51c0,.75.12,1.31.38,1.66s.69.54,1.33.54v.53c-.52-.05-1.03-.08-1.55-.08-.62,0-1.21.02-1.76.08-.56.05-1.07.14-1.54.27v-2.5c-.42.92-.99,1.57-1.71,1.96-.73.39-1.51.59-2.34.59-.65,0-1.2-.09-1.64-.26-.44-.18-.8-.41-1.06-.71-.28-.32-.48-.73-.6-1.25-.12-.52-.17-1.18-.17-2v-6.33c0-.75-.12-1.3-.36-1.66-.24-.36-.69-.54-1.34-.54v-.53c.53.05,1.05.08,1.55.08.62,0,1.21-.03,1.76-.09s1.07-.15,1.54-.26v10.21c0,.45.04.85.11,1.2.08.35.23.63.46.84.23.21.58.31,1.05.31.52,0,.98-.15,1.4-.45.42-.3.75-.71.99-1.23.24-.52.36-1.1.36-1.75v-6.13c0-.75-.12-1.3-.36-1.66-.24-.36-.69-.54-1.34-.54v-.53c.53.05,1.05.08,1.55.08.62,0,1.21-.03,1.76-.09s1.07-.15,1.54-.26Z"/>
        <path class="cls-4" d="m60.74,166.32c.65,0,1.2.09,1.64.27.44.18.79.42,1.04.7.3.32.51.74.62,1.26.12.53.18,1.19.18,1.99v6.73c0,.7.12,1.18.36,1.43.24.25.65.38,1.24.38v.53c-.3-.02-.75-.04-1.35-.06s-1.18-.04-1.75-.04c-.6,0-1.18.01-1.74.04-.56.03-.98.05-1.26.06v-.53c.48,0,.83-.12,1.04-.38.21-.25.31-.73.31-1.43v-7.58c0-.45-.03-.85-.1-1.21s-.21-.64-.43-.85c-.22-.21-.55-.31-1-.31-.52,0-.98.15-1.4.45-.42.3-.75.71-.99,1.24-.24.53-.36,1.11-.36,1.76v6.5c0,.7.1,1.18.3,1.43.2.25.55.38,1.05.38v.53c-.28-.02-.7-.04-1.24-.06s-1.1-.04-1.66-.04c-.62,0-1.24.01-1.88.04s-1.11.05-1.43.06v-.53c.62,0,1.05-.12,1.31-.38.26-.25.39-.73.39-1.43v-7.88c0-.75-.12-1.3-.36-1.66-.24-.36-.69-.54-1.34-.54v-.53c.53.05,1.05.08,1.55.08.62,0,1.2-.03,1.76-.09.56-.06,1.07-.15,1.54-.26v2.5c.42-.92.98-1.58,1.68-1.98.7-.4,1.46-.6,2.28-.6Zm7.53,0c.65,0,1.2.09,1.64.27.44.18.79.42,1.04.7.3.32.51.74.62,1.26.12.53.17,1.19.17,1.99v6.73c0,.7.13,1.18.39,1.43.26.25.7.38,1.31.38v.53c-.3-.02-.76-.04-1.39-.06-.63-.03-1.23-.04-1.81-.04s-1.18.01-1.74.04c-.56.03-.98.05-1.26.06v-.53c.48,0,.83-.12,1.04-.38.21-.25.31-.73.31-1.43v-7.58c0-.45-.04-.85-.11-1.21s-.23-.64-.46-.85c-.23-.21-.58-.31-1.05-.31-.52,0-.98.16-1.4.48-.42.32-.75.74-.99,1.26s-.37,1.11-.39,1.76l-.12-1.8c.45-1.03,1.05-1.74,1.8-2.13.75-.38,1.55-.58,2.4-.58Z"/>
        <path class="cls-4" d="m77.9,179.78c-.72,0-1.33-.14-1.83-.41-.5-.28-.88-.65-1.13-1.13-.25-.48-.38-1-.38-1.59,0-.72.17-1.3.5-1.76s.76-.83,1.29-1.1,1.08-.51,1.66-.7,1.13-.38,1.65-.55c.52-.17.94-.38,1.28-.61.33-.23.5-.54.5-.93v-1.83c0-.53-.08-.97-.24-1.31-.16-.34-.39-.6-.7-.78-.31-.17-.7-.26-1.16-.26-.35,0-.72.05-1.1.15-.38.1-.7.29-.95.58.43.12.77.33,1.01.65.24.32.36.7.36,1.15,0,.52-.17.92-.51,1.21-.34.29-.77.44-1.29.44-.55,0-.97-.18-1.25-.53-.28-.35-.43-.76-.43-1.23s.12-.85.35-1.16.56-.59.98-.84c.42-.28.95-.51,1.6-.68s1.36-.25,2.13-.25,1.38.08,1.95.24c.57.16,1.05.44,1.45.84.4.38.66.86.78,1.43.12.57.18,1.26.18,2.08v6.86c0,.42.05.71.15.89.1.17.26.26.48.26.17,0,.33-.04.48-.12.15-.08.32-.2.5-.35l.28.42c-.37.28-.75.51-1.15.68-.4.17-.88.25-1.45.25s-1.05-.08-1.39-.25c-.34-.17-.59-.41-.75-.73-.16-.32-.25-.69-.26-1.13-.4.67-.89,1.18-1.48,1.55s-1.28.55-2.1.55Zm1.5-1.4c.4,0,.77-.11,1.11-.33.34-.22.65-.54.94-.98v-5.05c-.17.25-.4.48-.71.68s-.64.4-.99.6c-.35.2-.68.43-.99.69-.31.26-.57.58-.78.95-.21.38-.31.85-.31,1.44,0,.65.16,1.15.48,1.49.32.34.73.51,1.25.51Z"/>
        <path class="cls-4" d="m96.19,166.32c.7,0,1.26.09,1.69.27.43.18.77.42,1.04.7.3.32.51.73.64,1.23.12.5.19,1.18.19,2.03v6.73c0,.7.13,1.18.39,1.43.26.25.7.38,1.31.38v.53c-.3-.02-.76-.04-1.39-.06-.62-.03-1.23-.04-1.81-.04-.62,0-1.22.01-1.8.04s-1.02.05-1.3.06v-.53c.53,0,.91-.12,1.13-.38.22-.25.33-.73.33-1.43v-7.58c0-.45-.04-.85-.12-1.21-.08-.36-.25-.64-.5-.85-.25-.21-.61-.31-1.08-.31-.55,0-1.04.15-1.46.45-.43.3-.76.71-1,1.24-.24.53-.36,1.11-.36,1.76v6.5c0,.7.11,1.18.33,1.43.22.25.59.38,1.12.38v.53c-.28-.02-.71-.04-1.28-.06-.57-.03-1.14-.04-1.73-.04-.62,0-1.24.01-1.88.04s-1.11.05-1.43.06v-.53c.62,0,1.05-.12,1.31-.38.26-.25.39-.73.39-1.43v-7.88c0-.75-.12-1.3-.36-1.66-.24-.36-.69-.54-1.34-.54v-.53c.53.05,1.05.08,1.55.08.62,0,1.2-.03,1.76-.09.56-.06,1.07-.15,1.54-.26v2.5c.42-.95.99-1.62,1.73-2s1.53-.58,2.4-.58Z"/>
        <path class="cls-4" d="m107.27,166.4v10.88c0,.7.13,1.18.39,1.43.26.25.7.38,1.31.38v.53c-.3-.02-.76-.04-1.38-.06-.62-.03-1.24-.04-1.88-.04s-1.24.01-1.88.04-1.11.05-1.43.06v-.53c.62,0,1.05-.12,1.31-.38.26-.25.39-.73.39-1.43v-7.88c0-.75-.12-1.3-.36-1.66-.24-.36-.69-.54-1.34-.54v-.53c.53.05,1.05.08,1.55.08.62,0,1.2-.03,1.76-.09.56-.06,1.07-.15,1.54-.26Zm-1.75-6.11c.6,0,1.09.17,1.48.5.38.33.58.78.58,1.33s-.19.99-.58,1.33c-.38.33-.88.5-1.48.5s-1.09-.17-1.48-.5c-.38-.33-.58-.78-.58-1.33s.19-.99.58-1.33c.38-.33.88-.5,1.48-.5Z"/>
        <path class="cls-4" d="m114.86,162.57v4.13h3.2v.5h-3.2v9.96c0,.6.11,1.03.33,1.28s.53.38.93.38.73-.15,1.05-.44c.32-.29.6-.78.85-1.46l.45.2c-.25.82-.64,1.5-1.16,2.04s-1.26.81-2.21.81c-.57,0-1.05-.07-1.44-.21-.39-.14-.73-.35-1.01-.61-.37-.38-.61-.84-.74-1.38-.12-.53-.19-1.24-.19-2.13v-8.43h-2.2v-.5h2.2v-3.48c.6-.02,1.16-.08,1.68-.18.52-.1,1.01-.26,1.48-.47Z"/>
        <path class="cls-4" d="m122.41,179.78c-.72,0-1.33-.14-1.83-.41-.5-.28-.88-.65-1.13-1.13-.25-.48-.38-1-.38-1.59,0-.72.17-1.3.5-1.76s.76-.83,1.29-1.1,1.08-.51,1.66-.7,1.13-.38,1.65-.55c.52-.17.94-.38,1.28-.61.33-.23.5-.54.5-.93v-1.83c0-.53-.08-.97-.24-1.31-.16-.34-.39-.6-.7-.78-.31-.17-.7-.26-1.16-.26-.35,0-.72.05-1.1.15-.38.1-.7.29-.95.58.43.12.77.33,1.01.65.24.32.36.7.36,1.15,0,.52-.17.92-.51,1.21-.34.29-.77.44-1.29.44-.55,0-.97-.18-1.25-.53-.28-.35-.43-.76-.43-1.23s.12-.85.35-1.16.56-.59.98-.84c.42-.28.95-.51,1.6-.68s1.36-.25,2.13-.25,1.38.08,1.95.24c.57.16,1.05.44,1.45.84.4.38.66.86.78,1.43.12.57.18,1.26.18,2.08v6.86c0,.42.05.71.15.89.1.17.26.26.48.26.17,0,.33-.04.48-.12.15-.08.32-.2.5-.35l.28.42c-.37.28-.75.51-1.15.68-.4.17-.88.25-1.45.25s-1.05-.08-1.39-.25c-.34-.17-.59-.41-.75-.73-.16-.32-.25-.69-.26-1.13-.4.67-.89,1.18-1.48,1.55s-1.28.55-2.1.55Zm1.5-1.4c.4,0,.77-.11,1.11-.33.34-.22.65-.54.94-.98v-5.05c-.17.25-.4.48-.71.68s-.64.4-.99.6c-.35.2-.68.43-.99.69-.31.26-.57.58-.78.95-.21.38-.31.85-.31,1.44,0,.65.16,1.15.48,1.49.32.34.73.51,1.25.51Z"/>
        <path class="cls-4" d="m140.02,166.32c.52,0,.95.11,1.29.33s.6.49.76.83c.17.33.25.68.25,1.05,0,.55-.16,1.01-.49,1.38-.33.37-.75.55-1.29.55-.5,0-.91-.13-1.23-.4-.32-.27-.48-.63-.48-1.1,0-.42.1-.77.31-1.05.21-.28.45-.51.71-.68-.18-.1-.39-.13-.62-.1-.4.03-.77.18-1.1.43-.33.25-.62.56-.85.93s-.41.76-.54,1.18-.19.82-.19,1.2v6.18c0,.82.21,1.36.63,1.64s1.03.41,1.83.41v.53c-.38-.02-.94-.04-1.66-.06-.72-.03-1.48-.04-2.26-.04-.65,0-1.3.01-1.94.04-.64.03-1.12.05-1.44.06v-.53c.62,0,1.05-.12,1.31-.38.26-.25.39-.73.39-1.43v-7.88c0-.75-.12-1.3-.36-1.66-.24-.36-.69-.54-1.34-.54v-.53c.53.05,1.05.08,1.55.08.62,0,1.2-.03,1.76-.09.56-.06,1.07-.15,1.54-.26v2.6c.2-.47.46-.9.79-1.3.33-.4.72-.73,1.18-.99.46-.26.95-.39,1.49-.39Z"/>
        <path class="cls-4" d="m148.06,166.4v10.88c0,.7.13,1.18.39,1.43.26.25.7.38,1.31.38v.53c-.3-.02-.76-.04-1.38-.06-.62-.03-1.24-.04-1.88-.04s-1.24.01-1.88.04-1.11.05-1.43.06v-.53c.62,0,1.05-.12,1.31-.38.26-.25.39-.73.39-1.43v-7.88c0-.75-.12-1.3-.36-1.66-.24-.36-.69-.54-1.34-.54v-.53c.53.05,1.05.08,1.55.08.62,0,1.2-.03,1.76-.09.56-.06,1.07-.15,1.54-.26Zm-1.75-6.11c.6,0,1.09.17,1.48.5.38.33.58.78.58,1.33s-.19.99-.58,1.33c-.38.33-.88.5-1.48.5s-1.09-.17-1.48-.5c-.38-.33-.58-.78-.58-1.33s.19-.99.58-1.33c.38-.33.88-.5,1.48-.5Z"/>
        <path class="cls-4" d="m154.39,179.78c-.72,0-1.33-.14-1.83-.41-.5-.28-.88-.65-1.13-1.13-.25-.48-.38-1-.38-1.59,0-.72.17-1.3.5-1.76s.76-.83,1.29-1.1,1.08-.51,1.66-.7,1.13-.38,1.65-.55c.52-.17.94-.38,1.28-.61.33-.23.5-.54.5-.93v-1.83c0-.53-.08-.97-.24-1.31-.16-.34-.39-.6-.7-.78-.31-.17-.7-.26-1.16-.26-.35,0-.72.05-1.1.15-.38.1-.7.29-.95.58.43.12.77.33,1.01.65.24.32.36.7.36,1.15,0,.52-.17.92-.51,1.21-.34.29-.77.44-1.29.44-.55,0-.97-.18-1.25-.53-.28-.35-.43-.76-.43-1.23s.12-.85.35-1.16.56-.59.98-.84c.42-.28.95-.51,1.6-.68s1.36-.25,2.13-.25,1.38.08,1.95.24c.57.16,1.05.44,1.45.84.4.38.66.86.78,1.43.12.57.18,1.26.18,2.08v6.86c0,.42.05.71.15.89.1.17.26.26.48.26.17,0,.33-.04.48-.12.15-.08.32-.2.5-.35l.28.42c-.37.28-.75.51-1.15.68-.4.17-.88.25-1.45.25s-1.05-.08-1.39-.25c-.34-.17-.59-.41-.75-.73-.16-.32-.25-.69-.26-1.13-.4.67-.89,1.18-1.48,1.55s-1.28.55-2.1.55Zm1.5-1.4c.4,0,.77-.11,1.11-.33.34-.22.65-.54.94-.98v-5.05c-.17.25-.4.48-.71.68s-.64.4-.99.6c-.35.2-.68.43-.99.69-.31.26-.57.58-.78.95-.21.38-.31.85-.31,1.44,0,.65.16,1.15.48,1.49.32.34.73.51,1.25.51Z"/>
        <path class="cls-4" d="m172.68,166.32c.7,0,1.26.09,1.69.27.43.18.77.42,1.04.7.3.32.51.73.64,1.23.12.5.19,1.18.19,2.03v6.73c0,.7.13,1.18.39,1.43.26.25.7.38,1.31.38v.53c-.3-.02-.76-.04-1.39-.06-.62-.03-1.23-.04-1.81-.04-.62,0-1.22.01-1.8.04s-1.02.05-1.3.06v-.53c.53,0,.91-.12,1.13-.38.22-.25.33-.73.33-1.43v-7.58c0-.45-.04-.85-.12-1.21-.08-.36-.25-.64-.5-.85-.25-.21-.61-.31-1.08-.31-.55,0-1.04.15-1.46.45-.43.3-.76.71-1,1.24-.24.53-.36,1.11-.36,1.76v6.5c0,.7.11,1.18.33,1.43.22.25.59.38,1.12.38v.53c-.28-.02-.71-.04-1.28-.06-.57-.03-1.14-.04-1.73-.04-.62,0-1.24.01-1.88.04s-1.11.05-1.43.06v-.53c.62,0,1.05-.12,1.31-.38.26-.25.39-.73.39-1.43v-7.88c0-.75-.12-1.3-.36-1.66-.24-.36-.69-.54-1.34-.54v-.53c.53.05,1.05.08,1.55.08.62,0,1.2-.03,1.76-.09.56-.06,1.07-.15,1.54-.26v2.5c.42-.95.99-1.62,1.73-2s1.53-.58,2.4-.58Z"/>
        <path class="cls-4" d="m17.88,187.46c.42.02.95.03,1.6.05s1.3.03,1.95.03c.82,0,1.59,0,2.33-.03.73-.02,1.25-.03,1.55-.03,1.5,0,2.74.18,3.71.54.98.36,1.71.86,2.19,1.51.48.65.73,1.42.73,2.3,0,.55-.11,1.11-.33,1.69s-.59,1.1-1.13,1.59c-.53.48-1.26.88-2.19,1.19s-2.11.46-3.54.46h-2.4v-.5h2.15c1.05,0,1.86-.19,2.41-.56.56-.38.93-.88,1.13-1.5.19-.63.29-1.32.29-2.09,0-1.32-.26-2.34-.78-3.06-.52-.73-1.41-1.09-2.68-1.09-.68,0-1.13.14-1.34.43-.21.28-.31.86-.31,1.73v12.41c0,.6.05,1.05.15,1.35.1.3.29.5.56.6.28.1.68.17,1.21.2v.5c-.42-.03-.95-.05-1.6-.06-.65,0-1.31-.01-1.98-.01-.75,0-1.45,0-2.1.01-.65,0-1.18.03-1.6.06v-.5c.55-.03.96-.1,1.24-.2.27-.1.46-.3.55-.6.09-.3.14-.75.14-1.35v-12.41c0-.62-.05-1.07-.14-1.36-.09-.29-.28-.49-.55-.6-.28-.11-.69-.17-1.24-.19v-.5Zm4.48,8.88c.78.03,1.44.07,1.96.11.53.04.98.08,1.35.11s.71.07,1.01.12c1.38.13,2.41.45,3.06.96s1.1,1.28,1.31,2.31l.58,2.58c.15.68.31,1.17.49,1.46s.43.43.76.41c.23,0,.43-.06.6-.19s.33-.3.5-.51l.35.3c-.42.52-.86.9-1.33,1.14-.47.24-1.06.36-1.78.36-.8,0-1.48-.19-2.03-.56-.55-.38-.93-1.09-1.13-2.14l-.47-2.5c-.13-.7-.29-1.32-.46-1.85-.18-.53-.41-.95-.71-1.25-.3-.3-.74-.45-1.33-.45h-2.7l-.05-.43Z"/>
        <path class="cls-4" d="m40.87,191.89c1.47,0,2.62.44,3.45,1.33.83.88,1.25,2.29,1.25,4.23h-8.43l-.03-.47h5.55c.03-.82-.02-1.57-.15-2.26s-.35-1.25-.64-1.66-.67-.62-1.14-.62c-.63,0-1.18.37-1.65,1.11s-.76,1.96-.88,3.64l.1.15c-.03.22-.05.45-.06.7,0,.25-.01.5-.01.75,0,1.15.17,2.1.5,2.85.33.75.77,1.3,1.3,1.65.53.35,1.08.53,1.65.53.38,0,.78-.06,1.18-.17.4-.12.79-.33,1.18-.65.38-.32.73-.77,1.05-1.35l.48.2c-.18.58-.49,1.16-.91,1.74-.43.58-.97,1.05-1.64,1.41-.67.37-1.45.55-2.35.55-1.13,0-2.13-.25-3-.75s-1.54-1.25-2.03-2.24c-.48-.99-.73-2.21-.73-3.64,0-1.52.25-2.79.76-3.83.51-1.03,1.21-1.82,2.11-2.36.9-.54,1.93-.81,3.08-.81Z"/>
        <path class="cls-4" d="m51.91,185.58v17.26c0,.7.13,1.18.39,1.43.26.25.7.38,1.31.38v.53c-.3-.02-.75-.04-1.36-.06-.61-.03-1.23-.04-1.86-.04s-1.25.01-1.89.04c-.64.03-1.12.05-1.44.06v-.53c.62,0,1.05-.12,1.31-.38.26-.25.39-.73.39-1.43v-14.26c0-.75-.12-1.3-.36-1.66-.24-.36-.69-.54-1.34-.54v-.53c.53.05,1.05.08,1.55.08.63,0,1.23-.03,1.78-.09.55-.06,1.06-.15,1.53-.26Z"/>
        <path class="cls-4" d="m59.64,191.96v10.88c0,.7.13,1.18.39,1.43.26.25.7.38,1.31.38v.53c-.3-.02-.76-.04-1.38-.06-.62-.03-1.24-.04-1.88-.04s-1.24.01-1.88.04-1.11.05-1.43.06v-.53c.62,0,1.05-.12,1.31-.38.26-.25.39-.73.39-1.43v-7.88c0-.75-.12-1.3-.36-1.66-.24-.36-.69-.54-1.34-.54v-.53c.53.05,1.05.08,1.55.08.62,0,1.2-.03,1.76-.09.56-.06,1.07-.15,1.54-.26Zm-1.75-6.11c.6,0,1.09.17,1.48.5.38.33.58.78.58,1.33s-.19.99-.58,1.33c-.38.33-.88.5-1.48.5s-1.09-.17-1.48-.5c-.38-.33-.58-.78-.58-1.33s.19-.99.58-1.33c.38-.33.88-.5,1.48-.5Z"/>
        <path class="cls-4" d="m68.79,191.89c1.47,0,2.62.44,3.45,1.33.83.88,1.25,2.29,1.25,4.23h-8.43l-.03-.47h5.55c.03-.82-.02-1.57-.15-2.26s-.35-1.25-.64-1.66-.67-.62-1.14-.62c-.63,0-1.18.37-1.65,1.11s-.76,1.96-.88,3.64l.1.15c-.03.22-.05.45-.06.7,0,.25-.01.5-.01.75,0,1.15.17,2.1.5,2.85.33.75.77,1.3,1.3,1.65.53.35,1.08.53,1.65.53.38,0,.78-.06,1.18-.17.4-.12.79-.33,1.18-.65.38-.32.73-.77,1.05-1.35l.48.2c-.18.58-.49,1.16-.91,1.74-.43.58-.97,1.05-1.64,1.41-.67.37-1.45.55-2.35.55-1.13,0-2.13-.25-3-.75s-1.54-1.25-2.03-2.24c-.48-.99-.73-2.21-.73-3.64,0-1.52.25-2.79.76-3.83.51-1.03,1.21-1.82,2.11-2.36.9-.54,1.93-.81,3.08-.81Z"/>
        <path class="cls-4" d="m81.58,185.61c.55,0,1.03.07,1.44.21.41.14.76.33,1.06.56.25.2.45.45.61.75.16.3.24.63.24,1,0,.45-.15.83-.46,1.15-.31.32-.7.48-1.16.48-.5,0-.91-.15-1.24-.44s-.49-.7-.49-1.21c0-.4.11-.75.34-1.04s.55-.5.96-.61c-.05-.12-.16-.22-.33-.3-.17-.08-.39-.12-.67-.12-.33,0-.62.07-.86.2-.24.13-.44.32-.59.55-.17.28-.28.7-.35,1.25-.07.55-.1,1.38-.1,2.5v1.73h2.68v.5h-2.68v9.83c0,.82.22,1.36.66,1.64.44.28,1.04.41,1.79.41v.53c-.42-.02-1-.04-1.75-.06-.75-.03-1.55-.04-2.4-.04-.6,0-1.2.01-1.8.04s-1.05.05-1.35.06v-.53c.62,0,1.05-.12,1.31-.38.26-.25.39-.73.39-1.43v-10.08h-1.8v-.5h1.8c0-.98.05-1.81.15-2.46.1-.66.25-1.22.46-1.69.21-.47.5-.88.86-1.25.35-.37.81-.67,1.39-.9s1.21-.35,1.89-.35Z"/>
        <path class="cls-4" d="m98.79,187.11c1.7,0,3.19.36,4.48,1.08,1.28.72,2.28,1.75,2.99,3.09s1.06,2.97,1.06,4.89-.36,3.5-1.09,4.9c-.73,1.4-1.74,2.49-3.03,3.28-1.29.78-2.77,1.18-4.44,1.18s-3.19-.36-4.48-1.08c-1.28-.72-2.28-1.75-2.99-3.1-.71-1.35-1.06-2.98-1.06-4.88s.37-3.5,1.1-4.9c.73-1.4,1.74-2.49,3.03-3.28,1.28-.78,2.76-1.18,4.43-1.18Zm-.1.45c-.98,0-1.84.38-2.56,1.13-.73.75-1.29,1.79-1.69,3.1-.4,1.32-.6,2.84-.6,4.58s.22,3.31.68,4.62c.45,1.31,1.05,2.32,1.81,3.03s1.61,1.06,2.54,1.06c.98,0,1.84-.38,2.56-1.13.73-.75,1.29-1.79,1.69-3.12s.6-2.85.6-4.57-.23-3.33-.68-4.63c-.45-1.3-1.05-2.31-1.81-3.01-.76-.71-1.61-1.06-2.54-1.06Z"/>
        <path class="cls-4" d="m117.43,191.89c.52,0,.95.11,1.29.33s.6.49.76.83c.17.33.25.68.25,1.05,0,.55-.16,1.01-.49,1.38-.33.37-.75.55-1.29.55-.5,0-.91-.13-1.23-.4-.32-.27-.48-.63-.48-1.1,0-.42.1-.77.31-1.05.21-.28.45-.51.71-.68-.18-.1-.39-.13-.62-.1-.4.03-.77.18-1.1.43-.33.25-.62.56-.85.93s-.41.76-.54,1.18-.19.82-.19,1.2v6.18c0,.82.21,1.36.63,1.64s1.03.41,1.83.41v.53c-.38-.02-.94-.04-1.66-.06-.72-.03-1.48-.04-2.26-.04-.65,0-1.3.01-1.94.04-.64.03-1.12.05-1.44.06v-.53c.62,0,1.05-.12,1.31-.38.26-.25.39-.73.39-1.43v-7.88c0-.75-.12-1.3-.36-1.66-.24-.36-.69-.54-1.34-.54v-.53c.53.05,1.05.08,1.55.08.62,0,1.2-.03,1.76-.09.56-.06,1.07-.15,1.54-.26v2.6c.2-.47.46-.9.79-1.3.33-.4.72-.73,1.18-.99.46-.26.95-.39,1.49-.39Z"/>
        <path class="cls-4" d="m125.36,209.88c-.98,0-1.88-.09-2.68-.28-.8-.18-1.44-.46-1.9-.81s-.7-.81-.7-1.36.23-1.01.7-1.43,1.15-.73,2.05-.95l.18.4c-.32.18-.56.43-.73.75-.17.32-.25.65-.25,1,0,.72.33,1.27.99,1.66.66.39,1.54.59,2.64.59.75,0,1.44-.1,2.08-.3s1.14-.51,1.53-.93c.38-.42.58-.93.58-1.55,0-.52-.19-.95-.56-1.3-.38-.35-1.12-.53-2.24-.53h-1.65c-.62,0-1.18-.07-1.69-.2s-.91-.35-1.21-.65-.45-.72-.45-1.25c0-.65.27-1.24.8-1.76s1.37-1.04,2.5-1.54l.28.23c-.42.22-.79.45-1.11.7s-.49.57-.49.95c0,.53.37.8,1.1.8h2.83c.87,0,1.64.11,2.31.33.67.22,1.21.56,1.61,1.03s.6,1.08.6,1.85-.26,1.55-.78,2.24c-.52.69-1.3,1.25-2.34,1.68-1.04.43-2.37.64-3.99.64Zm.23-10.03c-.9,0-1.71-.14-2.44-.41s-1.3-.71-1.71-1.3c-.42-.59-.63-1.35-.63-2.26s.21-1.67.63-2.25c.42-.58.99-1.02,1.71-1.3.73-.28,1.54-.42,2.44-.42s1.73.14,2.45.42c.72.28,1.28.72,1.7,1.3.42.58.62,1.33.62,2.25s-.21,1.67-.62,2.26c-.42.59-.98,1.03-1.7,1.3-.72.28-1.53.41-2.45.41Zm0-.45c.5,0,.9-.25,1.19-.76.29-.51.44-1.43.44-2.76s-.15-2.26-.44-2.76c-.29-.51-.69-.76-1.19-.76s-.9.25-1.19.76c-.29.51-.44,1.43-.44,2.76s.15,2.26.44,2.76c.29.51.69.76,1.19.76Zm3.78-5.38l-.48-.17c.25-.62.66-1.14,1.23-1.56.57-.43,1.17-.64,1.8-.64.48,0,.86.13,1.14.4.28.27.41.64.41,1.13s-.13.87-.4,1.1-.56.35-.88.35c-.28,0-.54-.1-.78-.29-.23-.19-.37-.49-.4-.9-.03-.41.1-.92.4-1.54l.25.1c-.65.25-1.13.53-1.45.83-.32.3-.6.7-.85,1.2Z"/>
        <path class="cls-4" d="m137.47,205.35c-.72,0-1.33-.14-1.83-.41-.5-.28-.88-.65-1.13-1.13-.25-.48-.38-1-.38-1.59,0-.72.17-1.3.5-1.76s.76-.83,1.29-1.1,1.08-.51,1.66-.7,1.13-.38,1.65-.55c.52-.17.94-.38,1.28-.61.33-.23.5-.54.5-.93v-1.83c0-.53-.08-.97-.24-1.31-.16-.34-.39-.6-.7-.78-.31-.17-.7-.26-1.16-.26-.35,0-.72.05-1.1.15-.38.1-.7.29-.95.58.43.12.77.33,1.01.65.24.32.36.7.36,1.15,0,.52-.17.92-.51,1.21-.34.29-.77.44-1.29.44-.55,0-.97-.18-1.25-.53-.28-.35-.43-.76-.43-1.23s.12-.85.35-1.16.56-.59.98-.84c.42-.28.95-.51,1.6-.68s1.36-.25,2.13-.25,1.38.08,1.95.24c.57.16,1.05.44,1.45.84.4.38.66.86.78,1.43.12.57.18,1.26.18,2.08v6.86c0,.42.05.71.15.89.1.17.26.26.48.26.17,0,.33-.04.48-.12.15-.08.32-.2.5-.35l.28.42c-.37.28-.75.51-1.15.68-.4.17-.88.25-1.45.25s-1.05-.08-1.39-.25c-.34-.17-.59-.41-.75-.73-.16-.32-.25-.69-.26-1.13-.4.67-.89,1.18-1.48,1.55s-1.28.55-2.1.55Zm1.5-1.4c.4,0,.77-.11,1.11-.33.34-.22.65-.54.94-.98v-5.05c-.17.25-.4.48-.71.68s-.64.4-.99.6c-.35.2-.68.43-.99.69-.31.26-.57.58-.78.95-.21.38-.31.85-.31,1.44,0,.65.16,1.15.48,1.49.32.34.73.51,1.25.51Z"/>
        <path class="cls-4" d="m155.76,191.89c.7,0,1.26.09,1.69.27.43.18.77.42,1.04.7.3.32.51.73.64,1.23.12.5.19,1.18.19,2.03v6.73c0,.7.13,1.18.39,1.43.26.25.7.38,1.31.38v.53c-.3-.02-.76-.04-1.39-.06-.62-.03-1.23-.04-1.81-.04-.62,0-1.22.01-1.8.04s-1.02.05-1.3.06v-.53c.53,0,.91-.12,1.13-.38.22-.25.33-.73.33-1.43v-7.58c0-.45-.04-.85-.12-1.21-.08-.36-.25-.64-.5-.85-.25-.21-.61-.31-1.08-.31-.55,0-1.04.15-1.46.45-.43.3-.76.71-1,1.24-.24.53-.36,1.11-.36,1.76v6.5c0,.7.11,1.18.33,1.43.22.25.59.38,1.12.38v.53c-.28-.02-.71-.04-1.28-.06-.57-.03-1.14-.04-1.73-.04-.62,0-1.24.01-1.88.04s-1.11.05-1.43.06v-.53c.62,0,1.05-.12,1.31-.38.26-.25.39-.73.39-1.43v-7.88c0-.75-.12-1.3-.36-1.66-.24-.36-.69-.54-1.34-.54v-.53c.53.05,1.05.08,1.55.08.62,0,1.2-.03,1.76-.09.56-.06,1.07-.15,1.54-.26v2.5c.42-.95.99-1.62,1.73-2s1.53-.58,2.4-.58Z"/>
        <path class="cls-4" d="m166.85,191.96v10.88c0,.7.13,1.18.39,1.43.26.25.7.38,1.31.38v.53c-.3-.02-.76-.04-1.38-.06-.62-.03-1.24-.04-1.88-.04s-1.24.01-1.88.04-1.11.05-1.43.06v-.53c.62,0,1.05-.12,1.31-.38.26-.25.39-.73.39-1.43v-7.88c0-.75-.12-1.3-.36-1.66-.24-.36-.69-.54-1.34-.54v-.53c.53.05,1.05.08,1.55.08.62,0,1.2-.03,1.76-.09.56-.06,1.07-.15,1.54-.26Zm-1.75-6.11c.6,0,1.09.17,1.48.5.38.33.58.78.58,1.33s-.19.99-.58,1.33c-.38.33-.88.5-1.48.5s-1.09-.17-1.48-.5c-.38-.33-.58-.78-.58-1.33s.19-.99.58-1.33c.38-.33.88-.5,1.48-.5Z"/>
        <path class="cls-4" d="m180.11,192.14l-6.58,12.66h1.8c.65,0,1.25-.14,1.79-.41.54-.28,1-.73,1.36-1.36.37-.63.58-1.48.65-2.55h.55c0,1.17,0,2.14.02,2.9.02.77.04,1.4.08,1.9-.75-.03-1.53-.06-2.34-.07-.81-.02-1.61-.03-2.42-.03-.85,0-1.72.01-2.6.04-.88.03-1.74.05-2.55.09l6.58-12.66h-1.85c-.68,0-1.3.14-1.84.41-.54.28-.98.73-1.3,1.35-.33.63-.53,1.48-.61,2.57h-.55c0-1.18,0-2.16-.03-2.92s-.04-1.39-.07-1.89c.75.03,1.53.06,2.34.08.81.02,1.61.03,2.41.03.85,0,1.72-.01,2.6-.04.88-.03,1.73-.05,2.55-.09Z"/>
        <path class="cls-4" d="m185.04,205.35c-.72,0-1.33-.14-1.83-.41-.5-.28-.88-.65-1.13-1.13-.25-.48-.38-1-.38-1.59,0-.72.17-1.3.5-1.76s.76-.83,1.29-1.1,1.08-.51,1.66-.7,1.13-.38,1.65-.55c.52-.17.94-.38,1.28-.61.33-.23.5-.54.5-.93v-1.83c0-.53-.08-.97-.24-1.31-.16-.34-.39-.6-.7-.78-.31-.17-.7-.26-1.16-.26-.35,0-.72.05-1.1.15-.38.1-.7.29-.95.58.43.12.77.33,1.01.65.24.32.36.7.36,1.15,0,.52-.17.92-.51,1.21-.34.29-.77.44-1.29.44-.55,0-.97-.18-1.25-.53-.28-.35-.43-.76-.43-1.23s.12-.85.35-1.16.56-.59.98-.84c.42-.28.95-.51,1.6-.68s1.36-.25,2.13-.25,1.38.08,1.95.24c.57.16,1.05.44,1.45.84.4.38.66.86.78,1.43.12.57.18,1.26.18,2.08v6.86c0,.42.05.71.15.89.1.17.26.26.48.26.17,0,.33-.04.48-.12.15-.08.32-.2.5-.35l.28.42c-.37.28-.75.51-1.15.68-.4.17-.88.25-1.45.25s-1.05-.08-1.39-.25c-.34-.17-.59-.41-.75-.73-.16-.32-.25-.69-.26-1.13-.4.67-.89,1.18-1.48,1.55s-1.28.55-2.1.55Zm1.5-1.4c.4,0,.77-.11,1.11-.33.34-.22.65-.54.94-.98v-5.05c-.17.25-.4.48-.71.68s-.64.4-.99.6c-.35.2-.68.43-.99.69-.31.26-.57.58-.78.95-.21.38-.31.85-.31,1.44,0,.65.16,1.15.48,1.49.32.34.73.51,1.25.51Z"/>
        <path class="cls-4" d="m199.07,188.13v4.13h3.2v.5h-3.2v9.96c0,.6.11,1.03.33,1.28s.53.38.93.38.73-.15,1.05-.44c.32-.29.6-.78.85-1.46l.45.2c-.25.82-.64,1.5-1.16,2.04s-1.26.81-2.21.81c-.57,0-1.05-.07-1.44-.21-.39-.14-.73-.35-1.01-.61-.37-.38-.61-.84-.74-1.38-.12-.53-.19-1.24-.19-2.13v-8.43h-2.2v-.5h2.2v-3.48c.6-.02,1.16-.08,1.68-.18.52-.1,1.01-.26,1.48-.47Z"/>
        <path class="cls-4" d="m208,191.96v10.88c0,.7.13,1.18.39,1.43.26.25.7.38,1.31.38v.53c-.3-.02-.76-.04-1.38-.06-.62-.03-1.24-.04-1.88-.04s-1.24.01-1.88.04-1.11.05-1.43.06v-.53c.62,0,1.05-.12,1.31-.38.26-.25.39-.73.39-1.43v-7.88c0-.75-.12-1.3-.36-1.66-.24-.36-.69-.54-1.34-.54v-.53c.53.05,1.05.08,1.55.08.62,0,1.2-.03,1.76-.09.56-.06,1.07-.15,1.54-.26Zm-1.75-6.11c.6,0,1.09.17,1.48.5.38.33.58.78.58,1.33s-.19.99-.58,1.33c-.38.33-.88.5-1.48.5s-1.09-.17-1.48-.5c-.38-.33-.58-.78-.58-1.33s.19-.99.58-1.33c.38-.33.88-.5,1.48-.5Z"/>
        <path class="cls-4" d="m217.21,191.89c1.15,0,2.17.23,3.06.69.89.46,1.6,1.19,2.13,2.19s.79,2.32.79,3.95-.26,2.95-.79,3.95-1.23,1.73-2.13,2.18-1.91.68-3.06.68-2.18-.23-3.08-.68c-.9-.45-1.61-1.18-2.13-2.18-.52-1-.78-2.32-.78-3.95s.26-2.95.78-3.95c.52-1,1.23-1.73,2.13-2.19.9-.46,1.93-.69,3.08-.69Zm0,.5c-.78,0-1.42.5-1.91,1.49-.49.99-.74,2.61-.74,4.84s.25,3.84.74,4.83c.49.98,1.13,1.48,1.91,1.48s1.4-.49,1.9-1.48c.5-.98.75-2.59.75-4.83s-.25-3.85-.75-4.84c-.5-.99-1.13-1.49-1.9-1.49Z"/>
        <path class="cls-4" d="m233.82,191.89c.7,0,1.26.09,1.69.27.43.18.77.42,1.04.7.3.32.51.73.64,1.23.12.5.19,1.18.19,2.03v6.73c0,.7.13,1.18.39,1.43.26.25.7.38,1.31.38v.53c-.3-.02-.76-.04-1.39-.06-.62-.03-1.23-.04-1.81-.04-.62,0-1.22.01-1.8.04s-1.02.05-1.3.06v-.53c.53,0,.91-.12,1.13-.38.22-.25.33-.73.33-1.43v-7.58c0-.45-.04-.85-.12-1.21-.08-.36-.25-.64-.5-.85-.25-.21-.61-.31-1.08-.31-.55,0-1.04.15-1.46.45-.43.3-.76.71-1,1.24-.24.53-.36,1.11-.36,1.76v6.5c0,.7.11,1.18.33,1.43.22.25.59.38,1.12.38v.53c-.28-.02-.71-.04-1.28-.06-.57-.03-1.14-.04-1.73-.04-.62,0-1.24.01-1.88.04s-1.11.05-1.43.06v-.53c.62,0,1.05-.12,1.31-.38.26-.25.39-.73.39-1.43v-7.88c0-.75-.12-1.3-.36-1.66-.24-.36-.69-.54-1.34-.54v-.53c.53.05,1.05.08,1.55.08.62,0,1.2-.03,1.76-.09.56-.06,1.07-.15,1.54-.26v2.5c.42-.95.99-1.62,1.73-2s1.53-.58,2.4-.58Z"/>
      </g>
      <path class="cls-4" d="m364.7,213.41h-80.03v-45.81c0-5.49,2.81-10.6,7.45-13.55l32.57-20.67,32.57,20.67c4.64,2.94,7.45,8.06,7.45,13.55v45.81Z"/>
      <path class="cls-4" d="m273.7,14.58l37.72,97.31c1.55,3.73,3.23,6.29,5.04,7.68,1.81,1.4,3.49,2.15,5.04,2.25v3.1c-2.69-.21-5.92-.33-9.7-.39-3.78-.05-7.63-.08-11.56-.08-4.55,0-8.8.03-12.73.08-3.93.05-7.14.18-9.62.39v-3.1c5.28-.21,8.64-1.11,10.09-2.72,1.45-1.6,1.14-5.04-.93-10.32l-27.32-73.72,2.79-3.41-24.83,64.41c-1.97,5.18-3.16,9.42-3.57,12.73-.41,3.31-.16,5.9.78,7.76.93,1.86,2.48,3.18,4.66,3.96s4.86,1.22,8.07,1.32v3.1c-3.31-.21-6.52-.33-9.62-.39-3.1-.05-6.21-.08-9.31-.08-2.28,0-4.42.03-6.44.08-2.02.05-3.8.18-5.35.39v-3.1c2.27-.52,4.52-1.86,6.75-4.04,2.22-2.17,4.37-5.95,6.44-11.33l35.54-91.88c1.24.1,2.59.15,4.04.15s2.79-.05,4.04-.15Zm17.27,55.29v3.1h-46.25l1.55-3.1h44.7Z"/>
      <g class="cls-1">
        <g>
          <path class="cls-4" d="m49.63,12.87c6.93,0,12.57,1.01,16.92,3.03,4.35,2.02,8.33,4.37,11.95,7.06,1.24,1.04,2.28,1.55,3.1,1.55,1.96,0,3.26-3.16,3.88-9.47h3.57c-.21,3.93-.36,8.74-.47,14.43-.1,5.69-.16,13.19-.16,22.5h-3.57c-.72-5.59-1.76-10.6-3.1-15.05-1.35-4.45-3.78-8.23-7.29-11.33-2.69-2.9-6.08-5.15-10.17-6.75-4.09-1.6-8.2-2.41-12.34-2.41-5.49,0-10.27,1.42-14.36,4.27-4.09,2.85-7.5,6.73-10.24,11.64-2.74,4.92-4.79,10.61-6.13,17.07-1.35,6.47-2.02,13.37-2.02,20.72,0,18.62,2.72,32.26,8.15,40.9,5.43,8.64,13.43,12.96,23.98,12.96,2.89,0,5.4-.39,7.53-1.16,2.12-.78,3.85-1.58,5.2-2.41,1.65-1.14,2.74-2.33,3.26-3.57.52-1.24.78-2.79.78-4.66v-15.21c0-4.55-.42-7.94-1.24-10.17-.83-2.22-2.36-3.75-4.58-4.58-2.23-.83-5.51-1.29-9.86-1.4v-3.1c2.07.1,4.53.18,7.37.23,2.84.05,5.84.1,9,.16,3.16.05,6.03.08,8.61.08,4.04,0,7.71-.05,11.02-.16,3.31-.1,6.05-.21,8.23-.31v3.1c-2.07.1-3.65.47-4.73,1.09-1.09.62-1.78,1.86-2.09,3.72-.31,1.86-.47,4.71-.47,8.54v30.73h-3.1c-.1-1.76-.52-3.67-1.24-5.74-.73-2.07-1.81-3.1-3.26-3.1-.73,0-1.55.18-2.48.54-.93.36-2.54,1.16-4.81,2.41-3.62,2.38-7.48,4.32-11.56,5.82-4.09,1.5-8.56,2.25-13.43,2.25-11.59,0-21.39-2.2-29.41-6.6-8.02-4.4-14.1-10.76-18.24-19.09-4.14-8.33-6.21-18.29-6.21-29.88s2.33-22.25,6.98-31.04c4.66-8.79,11.04-15.6,19.17-20.41,8.12-4.81,17.41-7.22,27.86-7.22Z"/>
          <path class="cls-4" d="m101.57,124.93v-3.1c3.41-.21,5.97-.62,7.68-1.24s2.84-1.86,3.41-3.72c.57-1.86.85-4.66.85-8.38V31.5c0-3.83-.29-6.65-.85-8.46-.57-1.81-1.71-3.05-3.41-3.72-1.71-.67-4.27-1.06-7.68-1.16v-3.1c2.48.1,5.77.21,9.85.31,4.09.1,8.46.16,13.12.16,4.14,0,8.23-.05,12.26-.16,4.04-.1,7.35-.21,9.93-.31v3.1c-3.31.1-5.82.49-7.53,1.16-1.71.67-2.87,1.92-3.49,3.72-.62,1.81-.93,4.63-.93,8.46v76.98c0,3.72.28,6.52.85,8.38.57,1.86,1.73,3.1,3.49,3.72,1.76.62,4.29,1.04,7.6,1.24v3.1c-2.59-.21-5.9-.33-9.93-.39-4.04-.05-8.12-.08-12.26-.08-4.66,0-9.03.03-13.12.08-4.09.05-7.37.18-9.85.39Zm24.68-51.82v-3.1h61.31v3.1h-61.31Zm40.82,51.82v-3.1c3.42-.21,5.98-.62,7.68-1.24s2.84-1.86,3.41-3.72c.57-1.86.85-4.66.85-8.38V31.5c0-3.83-.29-6.65-.85-8.46-.57-1.81-1.71-3.05-3.41-3.72-1.71-.67-4.27-1.06-7.68-1.16v-3.1c2.79.1,6.26.21,10.4.31,4.14.1,8.28.16,12.42.16,4.55,0,8.82-.05,12.8-.16,3.98-.1,7.16-.21,9.55-.31v3.1c-3.31.1-5.82.49-7.53,1.16-1.71.67-2.87,1.92-3.49,3.72-.62,1.81-.93,4.63-.93,8.46v76.98c0,3.72.28,6.52.85,8.38.57,1.86,1.73,3.1,3.49,3.72,1.76.62,4.29,1.04,7.6,1.24v3.1c-2.38-.21-5.56-.33-9.55-.39-3.98-.05-8.25-.08-12.8-.08-4.14,0-8.28.03-12.42.08-4.14.05-7.6.18-10.4.39Z"/>
          <path class="cls-4" d="m326.83,15.05c2.59.1,5.9.21,9.93.31,4.04.1,8.07.16,12.11.16,5.07,0,9.88-.05,14.43-.16,4.55-.1,7.76-.15,9.62-.15,9.31,0,16.99,1.11,23.05,3.34,6.05,2.23,10.58,5.35,13.58,9.39,3,4.04,4.5,8.8,4.5,14.28,0,3.41-.67,6.91-2.02,10.48-1.35,3.57-3.67,6.86-6.98,9.86-3.31,3-7.84,5.46-13.58,7.37-5.74,1.92-13.06,2.87-21.96,2.87h-14.9v-3.1h13.35c6.52,0,11.51-1.16,14.98-3.49,3.47-2.33,5.79-5.43,6.98-9.31,1.19-3.88,1.78-8.2,1.78-12.96,0-8.17-1.61-14.51-4.81-19.01-3.21-4.5-8.75-6.75-16.61-6.75-4.24,0-7.01.88-8.3,2.64-1.29,1.76-1.94,5.33-1.94,10.71v76.98c0,3.72.31,6.52.93,8.38.62,1.86,1.78,3.1,3.49,3.72,1.71.62,4.21,1.04,7.53,1.24v3.1c-2.59-.21-5.9-.33-9.93-.39-4.04-.05-8.12-.08-12.26-.08-4.66,0-9,.03-13.04.08-4.04.05-7.35.18-9.93.39v-3.1c3.41-.21,5.97-.62,7.68-1.24,1.71-.62,2.84-1.86,3.41-3.72.57-1.86.85-4.66.85-8.38V31.5c0-3.83-.29-6.65-.85-8.46-.57-1.81-1.71-3.05-3.41-3.72-1.71-.67-4.27-1.06-7.68-1.16v-3.1Zm27.78,55.1c4.86.21,8.92.44,12.18.7,3.26.26,6.05.49,8.38.7,2.33.21,4.42.47,6.29.78,8.59.83,14.92,2.82,19.01,5.98,4.09,3.16,6.8,7.94,8.15,14.36l3.57,15.99c.93,4.24,1.94,7.27,3.03,9.08,1.09,1.81,2.66,2.67,4.73,2.56,1.45,0,2.69-.39,3.72-1.16,1.03-.78,2.07-1.84,3.1-3.18l2.17,1.86c-2.59,3.21-5.33,5.56-8.23,7.06-2.9,1.5-6.57,2.25-11.02,2.25-4.97,0-9.16-1.16-12.57-3.49-3.42-2.33-5.74-6.75-6.98-13.27l-2.95-15.52c-.83-4.35-1.78-8.17-2.87-11.49-1.09-3.31-2.56-5.9-4.42-7.76-1.86-1.86-4.61-2.79-8.23-2.79h-16.76l-.31-2.64Z"/>
        </g>
      </g>
    </g>
  </g>
</svg>