<?xml version="1.0" encoding="UTF-8"?>
<svg id="Layer_1" data-name="Layer 1" xmlns="http://www.w3.org/2000/svg" xmlns:xlink="http://www.w3.org/1999/xlink" viewBox="0 0 336.26 168.13">
  <defs>
    <style>
      .cls-1 {
        letter-spacing: -.01em;
      }

      .cls-2 {
        clip-path: url(#clippath);
      }

      .cls-3 {
        fill: none;
      }

      .cls-3, .cls-4, .cls-5 {
        stroke-width: 0px;
      }

      .cls-6 {
        letter-spacing: -.01em;
      }

      .cls-7 {
        font-family: PlayfairDisplayRoman-SemiBold, 'Playfair Display';
        font-size: 16px;
        font-variation-settings: 'wght' 600;
        font-weight: 600;
      }

      .cls-7, .cls-5 {
        fill: #fff;
      }

      .cls-8 {
        letter-spacing: 0em;
      }

      .cls-4 {
        fill: #1a6fa0;
      }
    </style>
    <clipPath id="clippath">
      <rect class="cls-3" width="336.26" height="168.13"/>
    </clipPath>
  </defs>
  <rect class="cls-4" width="336.26" height="168.13"/>
  <text class="cls-7" transform="translate(13.38 123.72)"><tspan x="0" y="0">G</tspan><tspan class="cls-8" x="11.58" y="0">e</tspan><tspan x="19.6" y="0">rman </tspan><tspan class="cls-6" x="0" y="19.2">H</tspan><tspan x="12.38" y="19.2">umanitarian</tspan><tspan x="0" y="38.4">Relief Or</tspan><tspan class="cls-1" x="65.86" y="38.4">g</tspan><tspan x="74.42" y="38.4">anization</tspan></text>
  <path class="cls-5" d="m287.31,168.13h-63.05v-26.08c0-4.33,2.21-8.35,5.87-10.67l25.66-16.29,25.66,16.29c3.65,2.32,5.87,6.35,5.87,10.67v26.08Z"/>
  <path class="cls-5" d="m215.63,11.49l29.71,76.66c1.22,2.93,2.55,4.95,3.97,6.05,1.43,1.1,2.75,1.69,3.97,1.77v2.45c-2.12-.16-4.67-.26-7.64-.31-2.98-.04-6.01-.06-9.11-.06-3.59,0-6.93.02-10.03.06-3.1.04-5.62.14-7.58.31v-2.45c4.16-.16,6.81-.87,7.95-2.14,1.14-1.26.9-3.97-.73-8.13l-21.52-58.08,2.2-2.69-19.56,50.74c-1.55,4.08-2.49,7.42-2.81,10.03-.33,2.61-.12,4.65.61,6.11.73,1.47,1.96,2.51,3.67,3.12s3.83.96,6.36,1.04v2.45c-2.61-.16-5.14-.26-7.58-.31-2.45-.04-4.89-.06-7.34-.06-1.79,0-3.48.02-5.07.06-1.59.04-3,.14-4.22.31v-2.45c1.79-.41,3.56-1.47,5.32-3.18,1.75-1.71,3.44-4.69,5.07-8.93l28-72.39c.98.08,2.04.12,3.18.12s2.2-.04,3.18-.12Zm13.61,43.56v2.45h-36.44l1.22-2.45h35.21Z"/>
  <g class="cls-2">
    <g>
      <path class="cls-5" d="m39.1,10.14c5.46,0,9.9.79,13.33,2.38,3.42,1.59,6.56,3.44,9.41,5.56.98.82,1.79,1.22,2.45,1.22,1.55,0,2.57-2.49,3.06-7.46h2.81c-.16,3.1-.29,6.89-.37,11.37-.08,4.48-.12,10.39-.12,17.73h-2.81c-.57-4.4-1.39-8.35-2.45-11.86-1.06-3.5-2.98-6.48-5.75-8.93-2.12-2.28-4.79-4.05-8.01-5.32-3.22-1.26-6.46-1.9-9.72-1.9-4.32,0-8.09,1.12-11.31,3.36-3.22,2.24-5.91,5.3-8.07,9.17-2.16,3.87-3.77,8.36-4.83,13.45-1.06,5.1-1.59,10.54-1.59,16.32,0,14.67,2.14,25.41,6.42,32.22,4.28,6.81,10.58,10.21,18.89,10.21,2.28,0,4.26-.31,5.93-.92,1.67-.61,3.04-1.24,4.1-1.9,1.3-.9,2.16-1.83,2.57-2.81.41-.98.61-2.2.61-3.67v-11.98c0-3.59-.33-12.26-.98-14.01-.65-1.75-1.86-2.95-3.61-3.61-1.75-.65-4.34-1.02-7.76-1.1v-2.45c1.63.08,3.57.14,5.81.18,2.24.04,4.6.08,7.09.12,2.49.04,4.75.06,6.79.06,3.18,0,6.07-.04,8.68-.12,2.61-.08,4.77-.16,6.48-.24v2.45c-1.63.08-2.87.37-3.73.86-.86.49-1.41,1.47-1.65,2.93-.24,1.47-.37,3.71-.37,6.73v30.21h-2.45c-.08-1.39-.41-2.89-.98-4.52-.57-1.63-1.43-2.45-2.57-2.45-.57,0-1.22.14-1.96.43-.73.29-2,.92-3.79,1.9-2.85,1.88-5.89,3.4-9.11,4.59-3.22,1.18-6.75,1.77-10.58,1.77-9.13,0-16.85-1.73-23.17-5.2-6.32-3.46-11.11-8.48-14.37-15.04-3.26-6.56-4.89-14.41-4.89-23.54s1.83-17.53,5.5-24.45c3.67-6.93,8.7-12.29,15.1-16.08,6.4-3.79,13.71-5.69,21.95-5.69Z"/>
      <path class="cls-5" d="m80.02,98.42v-2.45c2.69-.16,4.71-.49,6.05-.98s2.24-1.47,2.69-2.93c.45-1.47.67-3.67.67-6.6V24.82c0-3.01-.23-5.24-.67-6.66-.45-1.43-1.34-2.4-2.69-2.93-1.35-.53-3.36-.83-6.05-.92v-2.45c1.96.08,4.54.16,7.76.24,3.22.08,6.66.12,10.33.12,3.26,0,6.48-.04,9.66-.12,3.18-.08,5.79-.16,7.83-.24v2.45c-2.61.08-4.59.39-5.93.92-1.35.53-2.26,1.51-2.75,2.93-.49,1.43-.73,3.65-.73,6.66v60.65c0,2.93.22,5.14.67,6.6.45,1.47,1.36,2.45,2.75,2.93,1.39.49,3.38.82,5.99.98v2.45c-2.04-.16-4.65-.26-7.83-.31-3.18-.04-6.4-.06-9.66-.06-3.67,0-7.11.02-10.33.06-3.22.04-5.81.14-7.76.31Zm19.44-40.82v-2.45h48.3v2.45h-48.3Zm32.16,40.82v-2.45c2.69-.16,4.71-.49,6.05-.98s2.24-1.47,2.69-2.93c.45-1.47.67-3.67.67-6.6V24.82c0-3.01-.23-5.24-.67-6.66-.45-1.43-1.34-2.4-2.69-2.93-1.35-.53-3.36-.83-6.05-.92v-2.45c2.2.08,4.93.16,8.19.24,3.26.08,6.52.12,9.78.12,3.59,0,6.95-.04,10.09-.12,3.14-.08,5.64-.16,7.52-.24v2.45c-2.61.08-4.59.39-5.93.92-1.34.53-2.26,1.51-2.75,2.93-.49,1.43-.73,3.65-.73,6.66v60.65c0,2.93.22,5.14.67,6.6.45,1.47,1.36,2.45,2.75,2.93,1.39.49,3.38.82,5.99.98v2.45c-1.88-.16-4.38-.26-7.52-.31-3.14-.04-6.5-.06-10.09-.06-3.26,0-6.52.02-9.78.06-3.26.04-5.99.14-8.19.31Z"/>
      <path class="cls-5" d="m257.48,11.85c2.04.08,4.65.16,7.83.24,3.18.08,6.36.12,9.54.12,3.99,0,7.78-.04,11.37-.12,3.59-.08,6.11-.12,7.58-.12,7.34,0,13.39.88,18.16,2.63,4.77,1.75,8.33,4.22,10.7,7.4,2.36,3.18,3.55,6.93,3.55,11.25,0,2.69-.53,5.44-1.59,8.25-1.06,2.81-2.89,5.4-5.5,7.76-2.61,2.37-6.17,4.3-10.7,5.81-4.52,1.51-10.29,2.26-17.3,2.26h-11.74v-2.45h10.52c5.14,0,9.07-.92,11.8-2.75,2.73-1.83,4.56-4.28,5.5-7.34.94-3.06,1.41-6.46,1.41-10.21,0-6.44-1.26-11.43-3.79-14.98-2.53-3.55-6.89-5.32-13.08-5.32-3.34,0-5.52.69-6.54,2.08-1.02,1.39-1.53,4.2-1.53,8.44v60.65c0,2.93.24,5.14.73,6.6.49,1.47,1.41,2.45,2.75,2.93,1.34.49,3.32.82,5.93.98v2.45c-2.04-.16-4.65-.26-7.83-.31-3.18-.04-6.4-.06-9.66-.06-3.67,0-7.09.02-10.27.06-3.18.04-5.79.14-7.83.31v-2.45c2.69-.16,4.71-.49,6.05-.98s2.24-1.47,2.69-2.93c.45-1.47.67-3.67.67-6.6V24.82c0-3.01-.23-5.24-.67-6.66-.45-1.43-1.34-2.4-2.69-2.93-1.35-.53-3.36-.83-6.05-.92v-2.45Zm21.89,43.41c3.83.16,7.03.35,9.6.55,2.57.2,4.77.39,6.6.55,1.83.16,3.48.37,4.95.61,6.77.65,11.76,2.22,14.98,4.71,3.22,2.49,5.36,6.26,6.42,11.31l2.81,12.59c.73,3.34,1.53,5.73,2.38,7.15.86,1.43,2.1,2.1,3.73,2.02,1.14,0,2.12-.31,2.93-.92.81-.61,1.63-1.45,2.45-2.51l1.71,1.47c-2.04,2.53-4.2,4.38-6.48,5.56-2.28,1.18-5.18,1.77-8.68,1.77-3.91,0-7.21-.92-9.9-2.75-2.69-1.83-4.52-5.32-5.5-10.45l-2.32-12.23c-.65-3.42-1.41-6.44-2.26-9.05-.86-2.61-2.02-4.65-3.48-6.11-1.47-1.47-3.63-2.2-6.48-2.2h-13.21l-.24-2.08Z"/>
    </g>
  </g>
</svg>