<?xml version="1.0" encoding="UTF-8"?>
<svg id="Layer_2" data-name="Layer 2" xmlns="http://www.w3.org/2000/svg" xmlns:xlink="http://www.w3.org/1999/xlink" viewBox="0 0 336.26 168.13">
  <defs>
    <style>
      .cls-1 {
        clip-path: url(#clippath);
      }

      .cls-2, .cls-3 {
        fill: #fff;
      }

      .cls-4 {
        fill: #1a6fa0;
      }

      .cls-4, .cls-3 {
        stroke-width: 0px;
      }
    </style>
    <clipPath id="clippath">
      <rect class="cls-3" width="336.26" height="168.13"/>
    </clipPath>
  </defs>
  <g id="Layer_1-2" data-name="Layer 1">
    <g>
      <rect class="cls-4" width="336.26" height="168.13"/>
      <g>
        <rect class="cls-2" width="336.26" height="168.13"/>
        <g class="cls-1">
          <g>
            <path class="cls-4" d="m39.1,10.14c5.46,0,9.9.79,13.33,2.38,3.42,1.59,6.56,3.44,9.41,5.56.98.82,1.79,1.22,2.45,1.22,1.55,0,2.57-2.49,3.06-7.46h2.81c-.16,3.1-.29,6.89-.37,11.37-.08,4.48-.12,10.39-.12,17.73h-2.81c-.57-4.4-1.39-8.35-2.45-11.86-1.06-3.5-2.98-6.48-5.75-8.93-2.12-2.28-4.79-4.05-8.01-5.32-3.22-1.26-6.46-1.9-9.72-1.9-4.32,0-8.09,1.12-11.31,3.36-3.22,2.24-5.91,5.3-8.07,9.17-2.16,3.87-3.77,8.36-4.83,13.45-1.06,5.1-1.59,10.54-1.59,16.32,0,14.67,2.14,25.41,6.42,32.22,4.28,6.81,10.58,10.21,18.89,10.21,2.28,0,4.26-.31,5.93-.92,1.67-.61,3.04-1.24,4.1-1.9,1.3-.9,2.16-1.83,2.57-2.81.41-.98.61-2.2.61-3.67v-11.98c0-3.59-.33-6.26-.98-8.01-.65-1.75-1.86-2.95-3.61-3.61-1.75-.65-4.34-1.02-7.76-1.1v-2.45c1.63.08,3.57.14,5.81.18,2.24.04,4.6.08,7.09.12,2.49.04,4.75.06,6.79.06,3.18,0,6.07-.04,8.68-.12,2.61-.08,4.77-.16,6.48-.24v2.45c-1.63.08-2.87.37-3.73.86-.86.49-1.41,1.47-1.65,2.93-.24,1.47-.37,3.71-.37,6.73v24.21h-2.45c-.08-1.39-.41-2.89-.98-4.52-.57-1.63-1.43-2.45-2.57-2.45-.57,0-1.22.14-1.96.43-.73.29-2,.92-3.79,1.9-2.85,1.88-5.89,3.4-9.11,4.59-3.22,1.18-6.75,1.77-10.58,1.77-9.13,0-16.85-1.73-23.17-5.2-6.32-3.46-11.11-8.48-14.37-15.04-3.26-6.56-4.89-14.41-4.89-23.54s1.83-17.53,5.5-24.45c3.67-6.93,8.7-12.29,15.1-16.08,6.4-3.79,13.71-5.69,21.95-5.69Z"/>
            <path class="cls-4" d="m80.02,98.42v-2.45c2.69-.16,4.71-.49,6.05-.98s2.24-1.47,2.69-2.93c.45-1.47.67-3.67.67-6.6V24.82c0-3.01-.23-5.24-.67-6.66-.45-1.43-1.34-2.4-2.69-2.93-1.35-.53-3.36-.83-6.05-.92v-2.45c1.96.08,4.54.16,7.76.24,3.22.08,6.66.12,10.33.12,3.26,0,6.48-.04,9.66-.12,3.18-.08,5.79-.16,7.83-.24v2.45c-2.61.08-4.59.39-5.93.92-1.35.53-2.26,1.51-2.75,2.93-.49,1.43-.73,3.65-.73,6.66v60.65c0,2.93.22,5.14.67,6.6.45,1.47,1.36,2.45,2.75,2.93,1.39.49,3.38.82,5.99.98v2.45c-2.04-.16-4.65-.26-7.83-.31-3.18-.04-6.4-.06-9.66-.06-3.67,0-7.11.02-10.33.06-3.22.04-5.81.14-7.76.31Zm19.44-40.82v-2.45h48.3v2.45h-48.3Zm32.16,40.82v-2.45c2.69-.16,4.71-.49,6.05-.98s2.24-1.47,2.69-2.93c.45-1.47.67-3.67.67-6.6V24.82c0-3.01-.23-5.24-.67-6.66-.45-1.43-1.34-2.4-2.69-2.93-1.35-.53-3.36-.83-6.05-.92v-2.45c2.2.08,4.93.16,8.19.24,3.26.08,6.52.12,9.78.12,3.59,0,6.95-.04,10.09-.12,3.14-.08,5.64-.16,7.52-.24v2.45c-2.61.08-4.59.39-5.93.92-1.34.53-2.26,1.51-2.75,2.93-.49,1.43-.73,3.65-.73,6.66v60.65c0,2.93.22,5.14.67,6.6.45,1.47,1.36,2.45,2.75,2.93,1.39.49,3.38.82,5.99.98v2.45c-1.88-.16-4.38-.26-7.52-.31-3.14-.04-6.5-.06-10.09-.06-3.26,0-6.52.02-9.78.06-3.26.04-5.99.14-8.19.31Z"/>
            <path class="cls-4" d="m257.48,11.85c2.04.08,4.65.16,7.83.24,3.18.08,6.36.12,9.54.12,3.99,0,7.78-.04,11.37-.12,3.59-.08,6.11-.12,7.58-.12,7.34,0,13.39.88,18.16,2.63,4.77,1.75,8.33,4.22,10.7,7.4,2.36,3.18,3.55,6.93,3.55,11.25,0,2.69-.53,5.44-1.59,8.25-1.06,2.81-2.89,5.4-5.5,7.76-2.61,2.37-6.17,4.3-10.7,5.81-4.52,1.51-10.29,2.26-17.3,2.26h-11.74v-2.45h10.52c5.14,0,9.07-.92,11.8-2.75,2.73-1.83,4.56-4.28,5.5-7.34.94-3.06,1.41-6.46,1.41-10.21,0-6.44-1.26-11.43-3.79-14.98-2.53-3.55-6.89-5.32-13.08-5.32-3.34,0-5.52.69-6.54,2.08-1.02,1.39-1.53,4.2-1.53,8.44v60.65c0,2.93.24,5.14.73,6.6.49,1.47,1.41,2.45,2.75,2.93,1.34.49,3.32.82,5.93.98v2.45c-2.04-.16-4.65-.26-7.83-.31-3.18-.04-6.4-.06-9.66-.06-3.67,0-7.09.02-10.27.06-3.18.04-5.79.14-7.83.31v-2.45c2.69-.16,4.71-.49,6.05-.98s2.24-1.47,2.69-2.93c.45-1.47.67-3.67.67-6.6V24.82c0-3.01-.23-5.24-.67-6.66-.45-1.43-1.34-2.4-2.69-2.93-1.35-.53-3.36-.83-6.05-.92v-2.45Zm21.89,43.41c3.83.16,7.03.35,9.6.55,2.57.2,4.77.39,6.6.55,1.83.16,3.48.37,4.95.61,6.77.65,11.76,2.22,14.98,4.71,3.22,2.49,5.36,6.26,6.42,11.31l2.81,12.59c.73,3.34,1.53,5.73,2.38,7.15.86,1.43,2.1,2.1,3.73,2.02,1.14,0,2.12-.31,2.93-.92.81-.61,1.63-1.45,2.45-2.51l1.71,1.47c-2.04,2.53-4.2,4.38-6.48,5.56-2.28,1.18-5.18,1.77-8.68,1.77-3.91,0-7.21-.92-9.9-2.75-2.69-1.83-4.52-5.32-5.5-10.45l-2.32-12.23c-.65-3.42-1.41-6.44-2.26-9.05-.86-2.61-2.02-4.65-3.48-6.11-1.47-1.47-3.63-2.2-6.48-2.2h-13.21l-.24-2.08Z"/>
          </g>
        </g>
      </g>
      <g>
        <path class="cls-4" d="m21.16,107.13c.88,0,1.6.13,2.15.38s1.06.56,1.52.9c.16.13.29.2.39.2.25,0,.41-.4.49-1.2h.45c-.03.5-.05,1.11-.06,1.83-.01.72-.02,1.68-.02,2.86h-.45c-.09-.71-.22-1.35-.39-1.91s-.48-1.04-.93-1.44c-.34-.37-.77-.65-1.29-.86-.52-.2-1.04-.3-1.57-.3-.7,0-1.3.18-1.82.54-.52.36-.95.85-1.3,1.48-.35.62-.61,1.35-.78,2.17s-.26,1.7-.26,2.63c0,2.37.34,4.1,1.03,5.19.69,1.1,1.71,1.65,3.05,1.65.37,0,.69-.05.96-.15.27-.1.49-.2.66-.31.21-.14.35-.3.41-.45.07-.16.1-.35.1-.59v-1.93c0-.58-.05-1.01-.16-1.29s-.3-.48-.58-.58c-.28-.1-.7-.16-1.25-.18v-.39c.26.01.58.02.94.03.36,0,.74.01,1.14.02.4,0,.77.01,1.09.01.51,0,.98,0,1.4-.02.42-.01.77-.03,1.04-.04v.39c-.26.01-.46.06-.6.14s-.23.24-.27.47c-.04.24-.06.6-.06,1.08v3.9h-.39c-.01-.22-.07-.47-.16-.73-.09-.26-.23-.39-.41-.39-.09,0-.2.02-.32.07s-.32.15-.61.31c-.46.3-.95.55-1.47.74-.52.19-1.09.29-1.7.29-1.47,0-2.72-.28-3.74-.84-1.02-.56-1.79-1.37-2.32-2.42s-.79-2.32-.79-3.79.29-2.83.89-3.94c.59-1.12,1.4-1.98,2.43-2.59,1.03-.61,2.21-.92,3.54-.92Z"/>
        <path class="cls-4" d="m33.13,110.9c1.16,0,2.06.35,2.72,1.04.66.7.99,1.81.99,3.33h-6.64l-.02-.38h4.38c.03-.64-.01-1.24-.12-1.78-.11-.54-.27-.98-.5-1.31-.23-.33-.53-.49-.9-.49-.5,0-.93.29-1.3.88-.37.58-.6,1.54-.69,2.87l.08.12c-.03.17-.04.36-.05.55,0,.2,0,.39,0,.59,0,.91.13,1.66.39,2.25.26.59.6,1.02,1.02,1.3s.85.41,1.3.41c.3,0,.61-.05.93-.14s.62-.26.93-.51c.3-.25.58-.6.83-1.06l.38.16c-.14.46-.38.92-.72,1.37s-.77.83-1.29,1.11c-.53.29-1.14.43-1.85.43-.89,0-1.68-.2-2.37-.59-.68-.39-1.22-.98-1.6-1.76-.38-.78-.57-1.74-.57-2.87,0-1.2.2-2.2.6-3.02.4-.81.96-1.44,1.67-1.86.71-.43,1.52-.64,2.42-.64Z"/>
        <path class="cls-4" d="m44.58,110.9c.41,0,.75.08,1.01.26s.47.39.6.65c.13.26.2.54.2.83,0,.43-.13.79-.38,1.08-.26.29-.59.43-1.01.43-.39,0-.72-.11-.97-.32-.25-.21-.38-.5-.38-.87,0-.33.08-.6.25-.83.16-.22.35-.4.56-.53-.14-.08-.31-.1-.49-.08-.32.03-.6.14-.87.34-.26.2-.49.44-.67.73-.18.29-.33.6-.42.93s-.15.64-.15.95v4.87c0,.64.17,1.07.49,1.29s.81.33,1.44.33v.41c-.3-.01-.74-.03-1.31-.05-.57-.02-1.17-.03-1.78-.03-.51,0-1.02,0-1.53.03-.51.02-.88.04-1.13.05v-.41c.49,0,.83-.1,1.03-.3.2-.2.31-.57.31-1.12v-6.21c0-.59-.09-1.03-.29-1.31-.19-.28-.54-.42-1.05-.42v-.41c.42.04.83.06,1.22.06.49,0,.95-.02,1.39-.07s.84-.12,1.21-.21v2.05c.16-.37.37-.71.62-1.02.26-.32.57-.58.93-.78.36-.2.75-.3,1.17-.3Z"/>
        <path class="cls-4" d="m54.02,110.9c.51,0,.94.07,1.29.22.35.14.62.33.82.55.24.25.4.58.49,1s.14.94.14,1.57v5.3c0,.55.1.93.29,1.12.19.2.52.3.98.3v.41c-.24-.01-.59-.03-1.06-.05-.47-.02-.93-.03-1.38-.03-.47,0-.93,0-1.37.03-.44.02-.77.04-1,.05v-.41c.38,0,.65-.1.82-.3.16-.2.25-.57.25-1.12v-5.97c0-.35-.03-.67-.08-.96-.05-.28-.16-.5-.33-.67-.17-.16-.43-.25-.79-.25-.41,0-.78.12-1.1.35-.33.24-.59.56-.78.98s-.29.88-.29,1.39v5.12c0,.55.08.93.24,1.12.16.2.43.3.83.3v.41c-.22-.01-.55-.03-.98-.05-.43-.02-.86-.03-1.31-.03-.49,0-.98,0-1.48.03-.5.02-.87.04-1.12.05v-.41c.49,0,.83-.1,1.03-.3.2-.2.31-.57.31-1.12v-6.21c0-.59-.09-1.03-.29-1.31-.19-.28-.54-.42-1.05-.42v-.41c.42.04.83.06,1.22.06.49,0,.95-.02,1.39-.07s.84-.12,1.21-.21v1.97c.33-.72.77-1.24,1.32-1.56s1.15-.47,1.79-.47Zm5.93,0c.51,0,.94.07,1.29.22.35.14.62.33.82.55.24.25.4.58.49,1s.14.94.14,1.57v5.3c0,.55.1.93.3,1.12.2.2.55.3,1.04.3v.41c-.24-.01-.6-.03-1.09-.05-.49-.02-.97-.03-1.43-.03s-.93,0-1.37.03c-.44.02-.77.04-1,.05v-.41c.38,0,.65-.1.82-.3.16-.2.25-.57.25-1.12v-5.97c0-.35-.03-.67-.09-.96-.06-.28-.18-.5-.37-.67-.18-.16-.46-.25-.83-.25-.41,0-.78.12-1.1.37-.33.25-.59.58-.78,1s-.29.88-.31,1.39l-.1-1.42c.35-.81.83-1.37,1.42-1.67.59-.3,1.22-.45,1.89-.45Z"/>
        <path class="cls-4" d="m67.54,121.5c-.56,0-1.04-.11-1.44-.33s-.69-.51-.89-.89c-.2-.38-.3-.79-.3-1.25,0-.56.13-1.03.39-1.39.26-.36.6-.65,1.01-.87s.85-.4,1.31-.55c.46-.15.89-.3,1.3-.43s.74-.3,1.01-.48c.26-.18.39-.43.39-.73v-1.44c0-.42-.06-.76-.19-1.03-.12-.27-.31-.47-.55-.61-.24-.14-.55-.21-.92-.21-.28,0-.57.04-.87.12-.3.08-.55.23-.75.45.34.09.61.26.8.51.19.25.29.55.29.91,0,.41-.13.73-.4.96-.27.23-.61.34-1.01.34-.43,0-.76-.14-.99-.41-.22-.28-.34-.6-.34-.97s.09-.67.28-.92c.18-.24.44-.46.77-.66.33-.22.75-.4,1.26-.53.51-.13,1.07-.2,1.68-.2s1.09.06,1.54.19c.45.12.83.34,1.14.66.32.3.52.68.61,1.12.09.45.14.99.14,1.64v5.4c0,.33.04.56.12.7s.2.21.37.21c.13,0,.26-.03.38-.1s.25-.16.39-.28l.22.33c-.29.22-.59.4-.91.53-.32.13-.7.2-1.14.2s-.82-.07-1.09-.2c-.27-.13-.47-.32-.59-.57-.12-.25-.19-.54-.21-.89-.32.53-.7.93-1.16,1.22s-1.01.43-1.66.43Zm1.18-1.1c.32,0,.61-.08.88-.26.27-.17.52-.43.74-.77v-3.98c-.13.2-.32.38-.56.53-.24.16-.5.32-.78.47-.28.16-.54.34-.78.54-.24.2-.45.45-.61.75-.16.29-.25.67-.25,1.13,0,.51.12.9.37,1.17.25.27.58.4.99.4Z"/>
        <path class="cls-4" d="m81.95,110.9c.55,0,1,.07,1.33.22s.61.33.82.55c.24.25.4.57.5.97.1.39.15.93.15,1.6v5.3c0,.55.1.93.31,1.12.2.2.55.3,1.04.3v.41c-.24-.01-.6-.03-1.09-.05-.49-.02-.97-.03-1.43-.03-.49,0-.96,0-1.42.03-.46.02-.8.04-1.03.05v-.41c.42,0,.72-.1.89-.3.17-.2.26-.57.26-1.12v-5.97c0-.35-.03-.67-.1-.96-.07-.28-.2-.5-.39-.67-.2-.16-.48-.25-.85-.25-.43,0-.82.12-1.15.35-.34.24-.6.56-.79.98s-.29.88-.29,1.39v5.12c0,.55.09.93.26,1.12.17.2.47.3.89.3v.41c-.22-.01-.56-.03-1-.05-.45-.02-.9-.03-1.36-.03-.49,0-.98,0-1.48.03-.5.02-.87.04-1.12.05v-.41c.49,0,.83-.1,1.03-.3.2-.2.31-.57.31-1.12v-6.21c0-.59-.09-1.03-.29-1.31-.19-.28-.54-.42-1.05-.42v-.41c.42.04.83.06,1.22.06.49,0,.95-.02,1.39-.07s.84-.12,1.21-.21v1.97c.33-.75.78-1.27,1.36-1.58.58-.3,1.21-.45,1.89-.45Z"/>
        <path class="cls-4" d="m14.09,141.5v-.39c.43-.03.76-.08.98-.16s.36-.24.43-.47c.07-.24.11-.59.11-1.06v-9.78c0-.49-.04-.84-.11-1.07-.07-.23-.22-.39-.43-.47-.22-.09-.54-.13-.98-.15v-.39c.32.01.73.03,1.25.04.52.01,1.07.02,1.67.02.53,0,1.04,0,1.56-.02.51-.01.93-.03,1.26-.04v.39c-.42.01-.74.06-.96.15-.22.08-.36.24-.44.47-.08.23-.12.59-.12,1.07v9.78c0,.47.04.83.11,1.06.07.24.22.39.44.47s.54.13.97.16v.39c-.33-.03-.75-.04-1.26-.05-.51,0-1.03-.01-1.56-.01-.59,0-1.15,0-1.67.01-.52,0-.94.02-1.25.05Zm3.13-6.82v-.39h7.79v.39h-7.79Zm5.18,6.82v-.39c.43-.03.76-.08.98-.16s.36-.24.43-.47c.07-.24.11-.59.11-1.06v-9.78c0-.49-.04-.84-.11-1.07-.07-.23-.22-.39-.43-.47-.22-.09-.54-.13-.98-.15v-.39c.36.01.79.03,1.32.04.53.01,1.05.02,1.58.02.58,0,1.12,0,1.63-.02.5-.01.91-.03,1.21-.04v.39c-.42.01-.74.06-.96.15-.22.08-.36.24-.44.47-.08.23-.12.59-.12,1.07v9.78c0,.47.04.83.11,1.06.07.24.22.39.44.47s.54.13.97.16v.39c-.3-.03-.71-.04-1.21-.05-.51,0-1.05-.01-1.63-.01-.53,0-1.05,0-1.58.01-.53,0-.97.02-1.32.05Z"/>
        <path class="cls-4" d="m38.67,131.09v8.28c0,.59.1,1.03.29,1.31.2.28.55.42,1.04.42v.41c-.41-.04-.81-.06-1.22-.06-.49,0-.95.02-1.39.06-.44.04-.84.11-1.21.22v-1.97c-.33.72-.78,1.24-1.35,1.55s-1.19.46-1.84.46c-.51,0-.94-.07-1.29-.21-.35-.14-.63-.33-.84-.56-.22-.25-.38-.58-.47-.99s-.14-.93-.14-1.58v-4.99c0-.59-.1-1.03-.29-1.31-.19-.28-.54-.42-1.05-.42v-.41c.42.04.83.06,1.22.06.49,0,.95-.02,1.39-.07s.84-.12,1.21-.21v8.04c0,.35.03.67.09.95.06.28.18.5.37.66.18.16.46.25.83.25.41,0,.78-.12,1.1-.35.33-.24.59-.56.78-.97s.29-.87.29-1.38v-4.83c0-.59-.1-1.03-.29-1.31-.19-.28-.54-.42-1.05-.42v-.41c.42.04.83.06,1.22.06.49,0,.95-.02,1.39-.07s.84-.12,1.21-.21Z"/>
        <path class="cls-4" d="m47.85,131.03c.51,0,.94.07,1.29.22.35.15.62.33.82.55.24.25.4.58.49,1s.14.94.14,1.57v5.3c0,.55.1.93.29,1.12.19.2.52.3.98.3v.41c-.24-.01-.59-.03-1.06-.05-.47-.02-.93-.03-1.38-.03-.47,0-.93,0-1.37.03-.44.02-.77.04-1,.05v-.41c.38,0,.65-.1.82-.3.16-.2.25-.57.25-1.12v-5.97c0-.35-.03-.67-.08-.96-.05-.28-.16-.51-.33-.67s-.43-.25-.79-.25c-.41,0-.78.12-1.1.35-.33.24-.59.56-.78.98s-.29.88-.29,1.39v5.12c0,.55.08.93.24,1.12.16.2.43.3.83.3v.41c-.22-.01-.55-.03-.98-.05-.43-.02-.86-.03-1.31-.03-.49,0-.98,0-1.48.03-.5.02-.87.04-1.12.05v-.41c.49,0,.83-.1,1.03-.3.2-.2.31-.57.31-1.12v-6.21c0-.59-.09-1.03-.29-1.31-.19-.28-.54-.42-1.05-.42v-.41c.42.04.83.06,1.22.06.49,0,.95-.02,1.39-.07s.84-.12,1.21-.21v1.97c.33-.72.77-1.24,1.32-1.56s1.15-.47,1.79-.47Zm5.93,0c.51,0,.94.07,1.29.22.35.15.62.33.82.55.24.25.4.58.49,1s.14.94.14,1.57v5.3c0,.55.1.93.3,1.12.2.2.55.3,1.04.3v.41c-.24-.01-.6-.03-1.09-.05-.49-.02-.97-.03-1.43-.03s-.93,0-1.37.03c-.44.02-.77.04-1,.05v-.41c.38,0,.65-.1.82-.3.16-.2.25-.57.25-1.12v-5.97c0-.35-.03-.67-.09-.96-.06-.28-.18-.51-.37-.67s-.46-.25-.83-.25c-.41,0-.78.12-1.1.37-.33.25-.59.58-.78,1-.19.41-.29.88-.31,1.39l-.1-1.42c.35-.81.83-1.37,1.42-1.68.59-.3,1.22-.45,1.89-.45Z"/>
        <path class="cls-4" d="m61.37,141.64c-.56,0-1.04-.11-1.44-.33s-.69-.51-.89-.89c-.2-.38-.3-.79-.3-1.25,0-.56.13-1.03.39-1.39.26-.36.6-.65,1.01-.87s.85-.4,1.31-.55c.46-.15.89-.3,1.3-.43s.74-.3,1.01-.48c.26-.18.39-.43.39-.73v-1.44c0-.42-.06-.76-.19-1.03-.12-.27-.31-.47-.55-.61-.24-.14-.55-.21-.92-.21-.28,0-.57.04-.87.12-.3.08-.55.23-.75.45.34.09.61.26.8.51.19.25.29.55.29.91,0,.41-.13.73-.4.96-.27.23-.61.35-1.01.35-.43,0-.76-.14-.99-.41-.22-.28-.34-.6-.34-.97s.09-.67.28-.92c.18-.24.44-.46.77-.66.33-.22.75-.4,1.26-.53.51-.13,1.07-.2,1.68-.2s1.09.06,1.54.19c.45.12.83.34,1.14.66.32.3.52.68.61,1.12.09.45.14.99.14,1.64v5.4c0,.33.04.56.12.7s.2.21.37.21c.13,0,.26-.03.38-.1s.25-.16.39-.28l.22.33c-.29.22-.59.4-.91.53-.32.13-.7.2-1.14.2s-.82-.07-1.09-.2c-.27-.13-.47-.32-.59-.57-.12-.25-.19-.54-.21-.89-.32.53-.7.93-1.16,1.22s-1.01.43-1.66.43Zm1.18-1.1c.32,0,.61-.08.88-.26.27-.17.52-.43.74-.77v-3.98c-.13.2-.32.38-.56.53-.24.16-.5.32-.78.47-.28.16-.54.34-.78.54-.24.2-.45.45-.61.75-.16.29-.25.67-.25,1.13,0,.51.12.9.37,1.17.25.27.58.4.99.4Z"/>
        <path class="cls-4" d="m75.78,131.03c.55,0,1,.07,1.33.22.33.15.61.33.82.55.24.25.4.57.5.97.1.39.15.93.15,1.6v5.3c0,.55.1.93.31,1.12.2.2.55.3,1.04.3v.41c-.24-.01-.6-.03-1.09-.05-.49-.02-.97-.03-1.43-.03-.49,0-.96,0-1.42.03-.46.02-.8.04-1.03.05v-.41c.42,0,.72-.1.89-.3.17-.2.26-.57.26-1.12v-5.97c0-.35-.03-.67-.1-.96-.07-.28-.2-.51-.39-.67s-.48-.25-.85-.25c-.43,0-.82.12-1.15.35-.34.24-.6.56-.79.98s-.29.88-.29,1.39v5.12c0,.55.09.93.26,1.12.17.2.47.3.89.3v.41c-.22-.01-.56-.03-1-.05-.45-.02-.9-.03-1.36-.03-.49,0-.98,0-1.48.03-.5.02-.87.04-1.12.05v-.41c.49,0,.83-.1,1.03-.3.2-.2.31-.57.31-1.12v-6.21c0-.59-.09-1.03-.29-1.31-.19-.28-.54-.42-1.05-.42v-.41c.42.04.83.06,1.22.06.49,0,.95-.02,1.39-.07s.84-.12,1.21-.21v1.97c.33-.75.78-1.27,1.36-1.58.58-.3,1.21-.45,1.89-.45Z"/>
        <path class="cls-4" d="m84.51,131.09v8.57c0,.55.1.93.31,1.12.2.2.55.3,1.04.3v.41c-.24-.01-.6-.03-1.08-.05-.49-.02-.98-.03-1.48-.03s-.98,0-1.48.03c-.5.02-.87.04-1.12.05v-.41c.49,0,.83-.1,1.03-.3.2-.2.31-.57.31-1.12v-6.21c0-.59-.09-1.03-.29-1.31-.19-.28-.54-.42-1.05-.42v-.41c.42.04.83.06,1.22.06.49,0,.95-.02,1.39-.07s.84-.12,1.21-.21Zm-1.38-4.81c.47,0,.86.13,1.16.39.3.26.45.61.45,1.04s-.15.78-.45,1.04c-.3.26-.69.39-1.16.39s-.86-.13-1.16-.39c-.3-.26-.45-.61-.45-1.04s.15-.78.45-1.04c.3-.26.69-.39,1.16-.39Z"/>
        <path class="cls-4" d="m90.49,128.08v3.25h2.52v.39h-2.52v7.84c0,.47.08.81.26,1,.17.2.41.3.73.3s.58-.12.83-.34c.25-.23.47-.61.67-1.15l.35.16c-.2.64-.5,1.18-.92,1.61-.41.43-1,.64-1.75.64-.45,0-.82-.06-1.13-.17-.31-.11-.58-.27-.8-.48-.29-.3-.48-.66-.58-1.08-.1-.42-.15-.98-.15-1.67v-6.64h-1.73v-.39h1.73v-2.74c.47-.01.91-.06,1.32-.14.41-.08.79-.2,1.16-.37Z"/>
        <path class="cls-4" d="m96.44,141.64c-.56,0-1.04-.11-1.44-.33s-.69-.51-.89-.89c-.2-.38-.3-.79-.3-1.25,0-.56.13-1.03.39-1.39.26-.36.6-.65,1.01-.87s.85-.4,1.31-.55c.46-.15.89-.3,1.3-.43s.74-.3,1.01-.48c.26-.18.39-.43.39-.73v-1.44c0-.42-.06-.76-.19-1.03-.12-.27-.31-.47-.55-.61-.24-.14-.55-.21-.92-.21-.28,0-.57.04-.87.12-.3.08-.55.23-.75.45.34.09.61.26.8.51.19.25.29.55.29.91,0,.41-.13.73-.4.96-.27.23-.61.35-1.01.35-.43,0-.76-.14-.99-.41-.22-.28-.34-.6-.34-.97s.09-.67.28-.92c.18-.24.44-.46.77-.66.33-.22.75-.4,1.26-.53.51-.13,1.07-.2,1.68-.2s1.09.06,1.54.19c.45.12.83.34,1.14.66.32.3.52.68.61,1.12.09.45.14.99.14,1.64v5.4c0,.33.04.56.12.7s.2.21.37.21c.13,0,.26-.03.38-.1s.25-.16.39-.28l.22.33c-.29.22-.59.4-.91.53-.32.13-.7.2-1.14.2s-.82-.07-1.09-.2c-.27-.13-.47-.32-.59-.57-.12-.25-.19-.54-.21-.89-.32.53-.7.93-1.16,1.22s-1.01.43-1.66.43Zm1.18-1.1c.32,0,.61-.08.88-.26.27-.17.52-.43.74-.77v-3.98c-.13.2-.32.38-.56.53-.24.16-.5.32-.78.47-.28.16-.54.34-.78.54-.24.2-.45.45-.61.75-.16.29-.25.67-.25,1.13,0,.51.12.9.37,1.17.25.27.58.4.99.4Z"/>
        <path class="cls-4" d="m110.31,131.03c.41,0,.75.09,1.01.26s.47.39.6.65c.13.26.2.54.2.83,0,.43-.13.8-.38,1.08-.26.29-.59.43-1.01.43-.39,0-.72-.11-.97-.32-.25-.21-.38-.5-.38-.87,0-.33.08-.6.25-.83.16-.22.35-.4.56-.53-.14-.08-.31-.11-.49-.08-.32.03-.6.14-.87.33s-.49.44-.67.73c-.18.29-.33.6-.42.93s-.15.64-.15.95v4.87c0,.64.17,1.07.49,1.29s.81.33,1.44.33v.41c-.3-.01-.74-.03-1.31-.05-.57-.02-1.17-.03-1.78-.03-.51,0-1.02,0-1.53.03-.51.02-.88.04-1.13.05v-.41c.49,0,.83-.1,1.03-.3.2-.2.31-.57.31-1.12v-6.21c0-.59-.09-1.03-.29-1.31-.19-.28-.54-.42-1.05-.42v-.41c.42.04.83.06,1.22.06.49,0,.95-.02,1.39-.07s.84-.12,1.21-.21v2.05c.16-.37.37-.71.62-1.03.26-.32.57-.57.93-.78.36-.2.75-.31,1.17-.31Z"/>
        <path class="cls-4" d="m116.64,131.09v8.57c0,.55.1.93.31,1.12.2.2.55.3,1.04.3v.41c-.24-.01-.6-.03-1.08-.05-.49-.02-.98-.03-1.48-.03s-.98,0-1.48.03c-.5.02-.87.04-1.12.05v-.41c.49,0,.83-.1,1.03-.3.2-.2.31-.57.31-1.12v-6.21c0-.59-.09-1.03-.29-1.31-.19-.28-.54-.42-1.05-.42v-.41c.42.04.83.06,1.22.06.49,0,.95-.02,1.39-.07s.84-.12,1.21-.21Zm-1.38-4.81c.47,0,.86.13,1.16.39.3.26.45.61.45,1.04s-.15.78-.45,1.04c-.3.26-.69.39-1.16.39s-.86-.13-1.16-.39c-.3-.26-.45-.61-.45-1.04s.15-.78.45-1.04c.3-.26.69-.39,1.16-.39Z"/>
        <path class="cls-4" d="m121.63,141.64c-.56,0-1.04-.11-1.44-.33s-.69-.51-.89-.89c-.2-.38-.3-.79-.3-1.25,0-.56.13-1.03.39-1.39.26-.36.6-.65,1.01-.87s.85-.4,1.31-.55c.46-.15.89-.3,1.3-.43s.74-.3,1.01-.48c.26-.18.39-.43.39-.73v-1.44c0-.42-.06-.76-.19-1.03-.12-.27-.31-.47-.55-.61-.24-.14-.55-.21-.92-.21-.28,0-.57.04-.87.12-.3.08-.55.23-.75.45.34.09.61.26.8.51.19.25.29.55.29.91,0,.41-.13.73-.4.96-.27.23-.61.35-1.01.35-.43,0-.76-.14-.99-.41-.22-.28-.34-.6-.34-.97s.09-.67.28-.92c.18-.24.44-.46.77-.66.33-.22.75-.4,1.26-.53.51-.13,1.07-.2,1.68-.2s1.09.06,1.54.19c.45.12.83.34,1.14.66.32.3.52.68.61,1.12.09.45.14.99.14,1.64v5.4c0,.33.04.56.12.7s.2.21.37.21c.13,0,.26-.03.38-.1s.25-.16.39-.28l.22.33c-.29.22-.59.4-.91.53-.32.13-.7.2-1.14.2s-.82-.07-1.09-.2c-.27-.13-.47-.32-.59-.57-.12-.25-.19-.54-.21-.89-.32.53-.7.93-1.16,1.22s-1.01.43-1.66.43Zm1.18-1.1c.32,0,.61-.08.88-.26.27-.17.52-.43.74-.77v-3.98c-.13.2-.32.38-.56.53-.24.16-.5.32-.78.47-.28.16-.54.34-.78.54-.24.2-.45.45-.61.75-.16.29-.25.67-.25,1.13,0,.51.12.9.37,1.17.25.27.58.4.99.4Z"/>
        <path class="cls-4" d="m136.04,131.03c.55,0,1,.07,1.33.22.33.15.61.33.82.55.24.25.4.57.5.97.1.39.15.93.15,1.6v5.3c0,.55.1.93.31,1.12.2.2.55.3,1.04.3v.41c-.24-.01-.6-.03-1.09-.05-.49-.02-.97-.03-1.43-.03-.49,0-.96,0-1.42.03-.46.02-.8.04-1.03.05v-.41c.42,0,.72-.1.89-.3.17-.2.26-.57.26-1.12v-5.97c0-.35-.03-.67-.1-.96-.07-.28-.2-.51-.39-.67s-.48-.25-.85-.25c-.43,0-.82.12-1.15.35-.34.24-.6.56-.79.98s-.29.88-.29,1.39v5.12c0,.55.09.93.26,1.12.17.2.47.3.89.3v.41c-.22-.01-.56-.03-1-.05-.45-.02-.9-.03-1.36-.03-.49,0-.98,0-1.48.03-.5.02-.87.04-1.12.05v-.41c.49,0,.83-.1,1.03-.3.2-.2.31-.57.31-1.12v-6.21c0-.59-.09-1.03-.29-1.31-.19-.28-.54-.42-1.05-.42v-.41c.42.04.83.06,1.22.06.49,0,.95-.02,1.39-.07s.84-.12,1.21-.21v1.97c.33-.75.78-1.27,1.36-1.58.58-.3,1.21-.45,1.89-.45Z"/>
        <path class="cls-4" d="m14.09,147.68c.33.01.75.03,1.26.04.51.01,1.03.02,1.54.02.64,0,1.25,0,1.83-.02.58-.01.99-.02,1.22-.02,1.18,0,2.16.14,2.93.42.77.28,1.34.68,1.72,1.19.38.51.57,1.12.57,1.81,0,.43-.09.88-.26,1.33-.17.45-.47.87-.89,1.25-.42.38-1,.69-1.72.94s-1.66.36-2.79.36h-1.89v-.39h1.69c.83,0,1.46-.15,1.9-.44.44-.29.74-.69.89-1.18.15-.49.23-1.04.23-1.65,0-1.04-.2-1.84-.61-2.42-.41-.57-1.11-.86-2.11-.86-.54,0-.89.11-1.05.33-.16.22-.25.68-.25,1.36v9.78c0,.47.04.83.12,1.06.08.24.23.39.44.47s.54.13.96.16v.39c-.33-.03-.75-.04-1.26-.05-.51,0-1.03-.01-1.56-.01-.59,0-1.14,0-1.66.01-.51,0-.93.02-1.26.05v-.39c.43-.03.76-.08.98-.16s.36-.24.43-.47c.07-.24.11-.59.11-1.06v-9.78c0-.49-.04-.84-.11-1.07-.07-.23-.22-.39-.43-.47-.22-.09-.54-.13-.98-.15v-.39Zm3.53,7c.62.03,1.13.06,1.55.09s.77.06,1.06.09.56.06.8.1c1.09.1,1.9.36,2.42.76.52.4.86,1.01,1.04,1.82l.45,2.03c.12.54.25.92.38,1.15.14.23.34.34.6.33.18,0,.34-.05.47-.15.13-.1.26-.23.39-.4l.28.24c-.33.41-.68.71-1.04.9s-.83.29-1.4.29c-.63,0-1.16-.15-1.6-.44-.43-.29-.73-.86-.89-1.68l-.38-1.97c-.11-.55-.23-1.04-.36-1.46-.14-.42-.33-.75-.56-.99-.24-.24-.58-.35-1.04-.35h-2.13l-.04-.33Z"/>
        <path class="cls-4" d="m32.2,151.17c1.16,0,2.06.35,2.72,1.04.66.7.99,1.81.99,3.33h-6.64l-.02-.37h4.38c.03-.64-.01-1.24-.12-1.78s-.27-.98-.5-1.31c-.23-.33-.53-.49-.9-.49-.5,0-.93.29-1.3.88-.37.58-.6,1.54-.69,2.87l.08.12c-.03.17-.04.36-.05.55,0,.2,0,.39,0,.59,0,.91.13,1.66.39,2.25.26.59.6,1.02,1.02,1.3s.85.41,1.3.41c.3,0,.61-.05.93-.14s.62-.26.93-.51c.3-.25.58-.6.83-1.06l.38.16c-.14.46-.38.92-.72,1.37s-.77.83-1.29,1.11c-.53.29-1.14.43-1.85.43-.89,0-1.68-.2-2.37-.59-.68-.39-1.22-.98-1.6-1.76-.38-.78-.57-1.74-.57-2.87,0-1.2.2-2.2.6-3.02.4-.82.96-1.44,1.67-1.86.71-.43,1.52-.64,2.42-.64Z"/>
        <path class="cls-4" d="m40.89,146.2v13.6c0,.55.1.93.31,1.12.2.2.55.3,1.04.3v.41c-.24-.01-.59-.03-1.07-.05-.48-.02-.97-.03-1.47-.03s-.98,0-1.49.03c-.51.02-.88.04-1.13.05v-.41c.49,0,.83-.1,1.03-.3.2-.2.31-.57.31-1.12v-11.24c0-.59-.1-1.03-.29-1.31-.19-.28-.54-.42-1.05-.42v-.41c.42.04.83.06,1.22.06.5,0,.97-.02,1.4-.07s.83-.12,1.2-.21Z"/>
        <path class="cls-4" d="m46.98,151.23v8.57c0,.55.1.93.31,1.12.2.2.55.3,1.04.3v.41c-.24-.01-.6-.03-1.08-.05-.49-.02-.98-.03-1.48-.03s-.98,0-1.48.03c-.5.02-.87.04-1.12.05v-.41c.49,0,.83-.1,1.03-.3.2-.2.31-.57.31-1.12v-6.21c0-.59-.09-1.03-.29-1.31-.19-.28-.54-.42-1.05-.42v-.41c.42.04.83.06,1.22.06.49,0,.95-.02,1.39-.07s.84-.12,1.21-.21Zm-1.38-4.81c.47,0,.86.13,1.16.39.3.26.45.61.45,1.04s-.15.78-.45,1.04c-.3.26-.69.39-1.16.39s-.86-.13-1.16-.39c-.3-.26-.45-.61-.45-1.04s.15-.78.45-1.04c.3-.26.69-.39,1.16-.39Z"/>
        <path class="cls-4" d="m54.2,151.17c1.16,0,2.06.35,2.72,1.04.66.7.99,1.81.99,3.33h-6.64l-.02-.37h4.38c.03-.64-.01-1.24-.12-1.78s-.27-.98-.5-1.31c-.23-.33-.53-.49-.9-.49-.5,0-.93.29-1.3.88-.37.58-.6,1.54-.69,2.87l.08.12c-.03.17-.04.36-.05.55,0,.2,0,.39,0,.59,0,.91.13,1.66.39,2.25.26.59.6,1.02,1.02,1.3s.85.41,1.3.41c.3,0,.61-.05.93-.14s.62-.26.93-.51c.3-.25.58-.6.83-1.06l.38.16c-.14.46-.38.92-.72,1.37s-.77.83-1.29,1.11c-.53.29-1.14.43-1.85.43-.89,0-1.68-.2-2.37-.59-.68-.39-1.22-.98-1.6-1.76-.38-.78-.57-1.74-.57-2.87,0-1.2.2-2.2.6-3.02.4-.82.96-1.44,1.67-1.86.71-.43,1.52-.64,2.42-.64Z"/>
        <path class="cls-4" d="m64.27,146.22c.43,0,.81.06,1.13.17.32.11.6.26.84.44.2.16.36.35.48.59s.19.5.19.79c0,.35-.12.66-.36.91-.24.25-.55.38-.92.38-.39,0-.72-.12-.98-.35-.26-.23-.38-.55-.38-.96,0-.31.09-.59.27-.82.18-.23.43-.39.76-.48-.04-.09-.12-.17-.26-.24-.13-.07-.31-.1-.53-.1-.26,0-.49.05-.68.16s-.34.25-.46.43c-.13.22-.22.55-.28.99s-.08,1.09-.08,1.97v1.36h2.11v.39h-2.11v7.75c0,.64.17,1.07.52,1.29.35.22.82.33,1.41.33v.41c-.33-.01-.79-.03-1.38-.05-.59-.02-1.22-.03-1.89-.03-.47,0-.95,0-1.42.03-.47.02-.83.04-1.06.05v-.41c.49,0,.83-.1,1.03-.3.2-.2.31-.57.31-1.12v-7.94h-1.42v-.39h1.42c0-.78.04-1.42.12-1.94.08-.52.2-.96.37-1.33.16-.37.39-.7.68-.99.28-.29.64-.53,1.09-.71.45-.18.95-.28,1.49-.28Z"/>
        <path class="cls-4" d="m77.83,147.41c1.34,0,2.52.28,3.53.85,1.01.57,1.8,1.38,2.36,2.43s.84,2.34.84,3.85-.29,2.76-.86,3.86c-.57,1.1-1.37,1.96-2.38,2.58-1.02.62-2.18.93-3.5.93s-2.52-.28-3.53-.85c-1.01-.57-1.8-1.38-2.36-2.44s-.84-2.35-.84-3.84.29-2.76.87-3.86c.58-1.1,1.37-1.96,2.38-2.58,1.01-.62,2.17-.93,3.49-.93Zm-.08.35c-.78,0-1.45.3-2.02.89-.57.59-1.02,1.41-1.33,2.44s-.47,2.24-.47,3.61.18,2.61.53,3.64c.35,1.03.83,1.83,1.43,2.38.6.56,1.26.84,2,.84.78,0,1.45-.29,2.02-.89s1.01-1.41,1.33-2.45.47-2.24.47-3.6-.18-2.62-.53-3.65c-.36-1.02-.83-1.82-1.43-2.38-.6-.56-1.26-.84-2-.84Z"/>
        <path class="cls-4" d="m92.52,151.17c.41,0,.75.09,1.01.26s.47.39.6.65c.13.26.2.54.2.83,0,.43-.13.8-.38,1.08-.26.29-.59.43-1.01.43-.39,0-.72-.11-.97-.32-.25-.21-.38-.5-.38-.87,0-.33.08-.6.25-.83.16-.22.35-.4.56-.53-.14-.08-.31-.11-.49-.08-.32.03-.6.14-.87.33s-.49.44-.67.73c-.18.29-.33.6-.42.93s-.15.64-.15.95v4.87c0,.64.17,1.07.49,1.29s.81.33,1.44.33v.41c-.3-.01-.74-.03-1.31-.05-.57-.02-1.17-.03-1.78-.03-.51,0-1.02,0-1.53.03-.51.02-.88.04-1.13.05v-.41c.49,0,.83-.1,1.03-.3.2-.2.31-.57.31-1.12v-6.21c0-.59-.09-1.03-.29-1.31-.19-.28-.54-.42-1.05-.42v-.41c.42.04.83.06,1.22.06.49,0,.95-.02,1.39-.07s.84-.12,1.21-.21v2.05c.16-.37.37-.71.62-1.03.26-.32.57-.57.93-.78.36-.2.75-.31,1.17-.31Z"/>
        <path class="cls-4" d="m98.76,165.34c-.78,0-1.48-.07-2.11-.22-.63-.15-1.13-.36-1.5-.64-.37-.28-.55-.64-.55-1.07s.18-.8.55-1.12.91-.58,1.62-.75l.14.32c-.25.14-.44.34-.57.59-.13.25-.2.51-.2.79,0,.56.26,1,.78,1.31.52.31,1.21.46,2.08.46.59,0,1.14-.08,1.64-.24.5-.16.9-.4,1.2-.73.3-.33.45-.74.45-1.22,0-.41-.15-.75-.44-1.03-.3-.28-.88-.41-1.76-.41h-1.3c-.49,0-.93-.05-1.33-.16-.4-.1-.72-.28-.96-.51-.24-.24-.36-.56-.36-.99,0-.51.21-.98.63-1.39s1.08-.82,1.97-1.21l.22.18c-.33.17-.62.35-.88.55-.26.2-.38.45-.38.75,0,.42.29.63.87.63h2.23c.68,0,1.29.08,1.82.26s.96.44,1.27.81c.32.37.47.85.47,1.46s-.2,1.22-.61,1.76c-.41.54-1.02.99-1.84,1.32s-1.87.5-3.14.5Zm.18-7.9c-.71,0-1.35-.11-1.92-.33-.57-.22-1.02-.56-1.35-1.03-.33-.47-.49-1.06-.49-1.78s.16-1.31.49-1.77c.33-.46.78-.8,1.35-1.03.57-.22,1.21-.33,1.92-.33s1.37.11,1.93.33c.57.22,1.01.57,1.34,1.03.33.46.49,1.05.49,1.77s-.17,1.32-.49,1.78c-.33.47-.78.81-1.34,1.03-.56.22-1.21.33-1.93.33Zm0-.36c.39,0,.71-.2.94-.6s.34-1.13.34-2.18-.12-1.78-.34-2.18c-.23-.4-.54-.6-.94-.6s-.71.2-.94.6c-.23.4-.35,1.13-.35,2.18s.12,1.78.35,2.18c.23.4.54.6.94.6Zm2.98-4.24l-.37-.14c.2-.49.52-.9.97-1.23.45-.33.92-.5,1.42-.5.38,0,.68.11.9.32.22.21.33.51.33.89s-.1.68-.32.87c-.21.18-.44.28-.69.28-.22,0-.43-.08-.61-.23-.18-.15-.29-.39-.32-.71-.03-.32.08-.73.32-1.21l.2.08c-.51.2-.89.41-1.14.65-.25.24-.47.55-.67.95Z"/>
        <path class="cls-4" d="m108.3,161.78c-.56,0-1.04-.11-1.44-.33s-.69-.51-.89-.89c-.2-.38-.3-.79-.3-1.25,0-.56.13-1.03.39-1.39.26-.36.6-.65,1.01-.87s.85-.4,1.31-.55c.46-.15.89-.3,1.3-.43s.74-.3,1.01-.48c.26-.18.39-.43.39-.73v-1.44c0-.42-.06-.76-.19-1.03-.12-.27-.31-.47-.55-.61-.24-.14-.55-.21-.92-.21-.28,0-.57.04-.87.12-.3.08-.55.23-.75.45.34.09.61.26.8.51.19.25.29.55.29.91,0,.41-.13.73-.4.96-.27.23-.61.35-1.01.35-.43,0-.76-.14-.99-.41-.22-.28-.34-.6-.34-.97s.09-.67.28-.92c.18-.24.44-.46.77-.66.33-.22.75-.4,1.26-.53.51-.13,1.07-.2,1.68-.2s1.09.06,1.54.19c.45.12.83.34,1.14.66.32.3.52.68.61,1.12.09.45.14.99.14,1.64v5.4c0,.33.04.56.12.7s.2.21.37.21c.13,0,.26-.03.38-.1s.25-.16.39-.28l.22.33c-.29.22-.59.4-.91.53-.32.13-.7.2-1.14.2s-.82-.07-1.09-.2c-.27-.13-.47-.32-.59-.57-.12-.25-.19-.54-.21-.89-.32.53-.7.93-1.16,1.22s-1.01.43-1.66.43Zm1.18-1.1c.32,0,.61-.08.88-.26.27-.17.52-.43.74-.77v-3.98c-.13.2-.32.38-.56.53-.24.16-.5.32-.78.47-.28.16-.54.34-.78.54-.24.2-.45.45-.61.75-.16.29-.25.67-.25,1.13,0,.51.12.9.37,1.17.25.27.58.4.99.4Z"/>
        <path class="cls-4" d="m122.71,151.17c.55,0,1,.07,1.33.22.33.15.61.33.82.55.24.25.4.57.5.97.1.39.15.93.15,1.6v5.3c0,.55.1.93.31,1.12.2.2.55.3,1.04.3v.41c-.24-.01-.6-.03-1.09-.05-.49-.02-.97-.03-1.43-.03-.49,0-.96,0-1.42.03-.46.02-.8.04-1.03.05v-.41c.42,0,.72-.1.89-.3.17-.2.26-.57.26-1.12v-5.97c0-.35-.03-.67-.1-.96-.07-.28-.2-.51-.39-.67s-.48-.25-.85-.25c-.43,0-.82.12-1.15.35-.34.24-.6.56-.79.98s-.29.88-.29,1.39v5.12c0,.55.09.93.26,1.12.17.2.47.3.89.3v.41c-.22-.01-.56-.03-1-.05-.45-.02-.9-.03-1.36-.03-.49,0-.98,0-1.48.03-.5.02-.87.04-1.12.05v-.41c.49,0,.83-.1,1.03-.3.2-.2.31-.57.31-1.12v-6.21c0-.59-.09-1.03-.29-1.31-.19-.28-.54-.42-1.05-.42v-.41c.42.04.83.06,1.22.06.49,0,.95-.02,1.39-.07s.84-.12,1.21-.21v1.97c.33-.75.78-1.27,1.36-1.58.58-.3,1.21-.45,1.89-.45Z"/>
        <path class="cls-4" d="m131.44,151.23v8.57c0,.55.1.93.31,1.12.2.2.55.3,1.04.3v.41c-.24-.01-.6-.03-1.08-.05-.49-.02-.98-.03-1.48-.03s-.98,0-1.48.03c-.5.02-.87.04-1.12.05v-.41c.49,0,.83-.1,1.03-.3.2-.2.31-.57.31-1.12v-6.21c0-.59-.09-1.03-.29-1.31-.19-.28-.54-.42-1.05-.42v-.41c.42.04.83.06,1.22.06.49,0,.95-.02,1.39-.07s.84-.12,1.21-.21Zm-1.38-4.81c.47,0,.86.13,1.16.39.3.26.45.61.45,1.04s-.15.78-.45,1.04c-.3.26-.69.39-1.16.39s-.86-.13-1.16-.39c-.3-.26-.45-.61-.45-1.04s.15-.78.45-1.04c.3-.26.69-.39,1.16-.39Z"/>
        <path class="cls-4" d="m141.89,151.37l-5.18,9.97h1.42c.51,0,.98-.11,1.41-.33s.79-.57,1.07-1.07c.29-.5.46-1.17.51-2.01h.43c0,.92,0,1.68.02,2.29.01.6.03,1.1.06,1.5-.59-.03-1.21-.05-1.84-.06-.64-.01-1.27-.02-1.9-.02-.67,0-1.35,0-2.05.03-.7.02-1.37.04-2.01.07l5.18-9.97h-1.46c-.54,0-1.02.11-1.45.33s-.77.57-1.02,1.06c-.26.49-.42,1.17-.48,2.02h-.43c0-.93,0-1.7-.02-2.3-.01-.6-.03-1.09-.06-1.49.59.03,1.21.05,1.84.06.64.01,1.27.02,1.9.02.67,0,1.35,0,2.05-.03.7-.02,1.37-.04,2.01-.07Z"/>
        <path class="cls-4" d="m145.77,161.78c-.56,0-1.04-.11-1.44-.33s-.69-.51-.89-.89c-.2-.38-.3-.79-.3-1.25,0-.56.13-1.03.39-1.39.26-.36.6-.65,1.01-.87s.85-.4,1.31-.55c.46-.15.89-.3,1.3-.43s.74-.3,1.01-.48c.26-.18.39-.43.39-.73v-1.44c0-.42-.06-.76-.19-1.03-.12-.27-.31-.47-.55-.61-.24-.14-.55-.21-.92-.21-.28,0-.57.04-.87.12-.3.08-.55.23-.75.45.34.09.61.26.8.51.19.25.29.55.29.91,0,.41-.13.73-.4.96-.27.23-.61.35-1.01.35-.43,0-.76-.14-.99-.41-.22-.28-.34-.6-.34-.97s.09-.67.28-.92c.18-.24.44-.46.77-.66.33-.22.75-.4,1.26-.53.51-.13,1.07-.2,1.68-.2s1.09.06,1.54.19c.45.12.83.34,1.14.66.32.3.52.68.61,1.12.09.45.14.99.14,1.64v5.4c0,.33.04.56.12.7s.2.21.37.21c.13,0,.26-.03.38-.1s.25-.16.39-.28l.22.33c-.29.22-.59.4-.91.53-.32.13-.7.2-1.14.2s-.82-.07-1.09-.2c-.27-.13-.47-.32-.59-.57-.12-.25-.19-.54-.21-.89-.32.53-.7.93-1.16,1.22s-1.01.43-1.66.43Zm1.18-1.1c.32,0,.61-.08.88-.26.27-.17.52-.43.74-.77v-3.98c-.13.2-.32.38-.56.53-.24.16-.5.32-.78.47-.28.16-.54.34-.78.54-.24.2-.45.45-.61.75-.16.29-.25.67-.25,1.13,0,.51.12.9.37,1.17.25.27.58.4.99.4Z"/>
        <path class="cls-4" d="m156.83,148.21v3.25h2.52v.39h-2.52v7.84c0,.47.08.81.26,1,.17.2.41.3.73.3s.58-.12.83-.34c.25-.23.47-.61.67-1.15l.35.16c-.2.64-.5,1.18-.92,1.61-.41.43-1,.64-1.75.64-.45,0-.82-.06-1.13-.17-.31-.11-.58-.27-.8-.48-.29-.3-.48-.66-.58-1.08-.1-.42-.15-.98-.15-1.67v-6.64h-1.73v-.39h1.73v-2.74c.47-.01.91-.06,1.32-.14.41-.08.79-.2,1.16-.37Z"/>
        <path class="cls-4" d="m163.87,151.23v8.57c0,.55.1.93.31,1.12.2.2.55.3,1.04.3v.41c-.24-.01-.6-.03-1.08-.05-.49-.02-.98-.03-1.48-.03s-.98,0-1.48.03c-.5.02-.87.04-1.12.05v-.41c.49,0,.83-.1,1.03-.3.2-.2.31-.57.31-1.12v-6.21c0-.59-.09-1.03-.29-1.31-.19-.28-.54-.42-1.05-.42v-.41c.42.04.83.06,1.22.06.49,0,.95-.02,1.39-.07s.84-.12,1.21-.21Zm-1.38-4.81c.47,0,.86.13,1.16.39.3.26.45.61.45,1.04s-.15.78-.45,1.04c-.3.26-.69.39-1.16.39s-.86-.13-1.16-.39c-.3-.26-.45-.61-.45-1.04s.15-.78.45-1.04c.3-.26.69-.39,1.16-.39Z"/>
        <path class="cls-4" d="m171.12,151.17c.91,0,1.71.18,2.41.54.7.36,1.26.94,1.68,1.72.41.79.62,1.83.62,3.12s-.21,2.33-.62,3.11c-.41.79-.97,1.36-1.68,1.71-.7.35-1.51.53-2.41.53s-1.71-.18-2.42-.53c-.71-.36-1.27-.93-1.68-1.71-.41-.79-.61-1.83-.61-3.11s.2-2.33.61-3.12c.41-.79.97-1.36,1.68-1.72.71-.36,1.52-.54,2.42-.54Zm0,.39c-.62,0-1.12.39-1.51,1.17s-.58,2.05-.58,3.81.19,3.03.58,3.8.89,1.16,1.51,1.16,1.1-.39,1.5-1.16c.39-.78.59-2.04.59-3.8s-.2-3.03-.59-3.81c-.39-.78-.89-1.17-1.5-1.17Z"/>
        <path class="cls-4" d="m184.21,151.17c.55,0,1,.07,1.33.22.33.15.61.33.82.55.24.25.4.57.5.97.1.39.15.93.15,1.6v5.3c0,.55.1.93.31,1.12.2.2.55.3,1.04.3v.41c-.24-.01-.6-.03-1.09-.05-.49-.02-.97-.03-1.43-.03-.49,0-.96,0-1.42.03-.46.02-.8.04-1.03.05v-.41c.42,0,.72-.1.89-.3.17-.2.26-.57.26-1.12v-5.97c0-.35-.03-.67-.1-.96-.07-.28-.2-.51-.39-.67s-.48-.25-.85-.25c-.43,0-.82.12-1.15.35-.34.24-.6.56-.79.98s-.29.88-.29,1.39v5.12c0,.55.09.93.26,1.12.17.2.47.3.89.3v.41c-.22-.01-.56-.03-1-.05-.45-.02-.9-.03-1.36-.03-.49,0-.98,0-1.48.03-.5.02-.87.04-1.12.05v-.41c.49,0,.83-.1,1.03-.3.2-.2.31-.57.31-1.12v-6.21c0-.59-.09-1.03-.29-1.31-.19-.28-.54-.42-1.05-.42v-.41c.42.04.83.06,1.22.06.49,0,.95-.02,1.39-.07s.84-.12,1.21-.21v1.97c.33-.75.78-1.27,1.36-1.58.58-.3,1.21-.45,1.89-.45Z"/>
      </g>
      <path class="cls-4" d="m287.31,168.13h-63.05v-36.09c0-4.33,2.21-8.35,5.87-10.67l25.66-16.29,25.66,16.29c3.65,2.32,5.87,6.35,5.87,10.67v36.09Z"/>
      <path class="cls-4" d="m215.63,11.49l29.71,76.66c1.22,2.93,2.55,4.95,3.97,6.05,1.43,1.1,2.75,1.69,3.97,1.77v2.45c-2.12-.16-4.67-.26-7.64-.31-2.98-.04-6.01-.06-9.11-.06-3.59,0-6.93.02-10.03.06-3.1.04-5.62.14-7.58.31v-2.45c4.16-.16,6.81-.87,7.95-2.14,1.14-1.26.9-3.97-.73-8.13l-21.52-58.08,2.2-2.69-19.56,50.74c-1.55,4.08-2.49,7.42-2.81,10.03-.33,2.61-.12,4.65.61,6.11.73,1.47,1.96,2.51,3.67,3.12s3.83.96,6.36,1.04v2.45c-2.61-.16-5.14-.26-7.58-.31-2.45-.04-4.89-.06-7.34-.06-1.79,0-3.48.02-5.07.06-1.59.04-3,.14-4.22.31v-2.45c1.79-.41,3.56-1.47,5.32-3.18,1.75-1.71,3.44-4.69,5.07-8.93l28-72.39c.98.08,2.04.12,3.18.12s2.2-.04,3.18-.12Zm13.61,43.56v2.45h-36.44l1.22-2.45h35.21Z"/>
    </g>
  </g>
</svg>